<svg width="23" height="23" viewBox="0 0 23 23" fill="none" xmlns="http://www.w3.org/2000/svg">
<path d="M22.5238 4.50918C22.4448 4.41466 22.3461 4.33863 22.2345 4.28647C22.1229 4.23431 22.0012 4.20729 21.878 4.20731H4.90993L4.27042 0.69105C4.23519 0.497164 4.13304 0.321791 3.98176 0.195504C3.83049 0.0692173 3.63969 2.84805e-05 3.44263 0H0.841461C0.618292 0 0.404263 0.0886537 0.246458 0.246458C0.0886537 0.404263 0 0.618292 0 0.841461C0 1.06463 0.0886537 1.27866 0.246458 1.43646C0.404263 1.59427 0.618292 1.68292 0.841461 1.68292H2.73475L5.42322 16.439C5.50241 16.8766 5.69581 17.2856 5.98384 17.6244C5.5863 17.9957 5.29937 18.4699 5.15485 18.9943C5.01034 19.5187 5.0139 20.073 5.16513 20.5955C5.31636 21.118 5.60936 21.5885 6.01164 21.9546C6.41391 22.3208 6.90975 22.5684 7.44415 22.67C7.97856 22.7716 8.53067 22.7232 9.03924 22.5302C9.54782 22.3371 9.99299 22.007 10.3254 21.5764C10.6578 21.1458 10.8645 20.6316 10.9225 20.0907C10.9805 19.5498 10.8875 19.0034 10.654 18.5122H15.4314C15.2431 18.9063 15.1457 19.3376 15.1463 19.7743C15.1463 20.3568 15.319 20.9262 15.6426 21.4106C15.9663 21.8949 16.4262 22.2724 16.9644 22.4953C17.5025 22.7182 18.0947 22.7765 18.666 22.6629C19.2373 22.5492 19.7621 22.2687 20.1739 21.8569C20.5858 21.445 20.8663 20.9202 20.9799 20.3489C21.0936 19.7776 21.0353 19.1854 20.8124 18.6473C20.5894 18.1091 20.212 17.6492 19.7276 17.3256C19.2433 17.002 18.6739 16.8292 18.0914 16.8292H7.90658C7.70952 16.8292 7.51872 16.76 7.36745 16.6337C7.21617 16.5074 7.11402 16.3321 7.07879 16.1382L6.74537 14.3048H18.9466C19.5377 14.3048 20.1101 14.0972 20.564 13.7183C21.0178 13.3395 21.3242 12.8134 21.4299 12.2317L22.7089 5.19918C22.7306 5.07763 22.7252 4.95281 22.6932 4.83356C22.6612 4.71431 22.6034 4.60357 22.5238 4.50918ZM9.25608 19.7743C9.25608 20.024 9.18205 20.268 9.04336 20.4756C8.90467 20.6831 8.70754 20.8449 8.4769 20.9405C8.24627 21.036 7.99248 21.061 7.74764 21.0123C7.5028 20.9636 7.2779 20.8434 7.10138 20.6668C6.92486 20.4903 6.80465 20.2654 6.75594 20.0206C6.70724 19.7757 6.73224 19.522 6.82777 19.2913C6.9233 19.0607 7.08508 18.8636 7.29265 18.7249C7.50021 18.5862 7.74425 18.5122 7.99388 18.5122C8.32864 18.5122 8.64968 18.6451 8.88639 18.8818C9.1231 19.1185 9.25608 19.4396 9.25608 19.7743ZM19.3536 19.7743C19.3536 20.024 19.2796 20.268 19.1409 20.4756C19.0022 20.6831 18.8051 20.8449 18.5744 20.9405C18.3438 21.036 18.09 21.061 17.8452 21.0123C17.6003 20.9636 17.3754 20.8434 17.1989 20.6668C17.0224 20.4903 16.9022 20.2654 16.8535 20.0206C16.8048 19.7757 16.8298 19.522 16.9253 19.2913C17.0208 19.0607 17.1826 18.8636 17.3902 18.7249C17.5978 18.5862 17.8418 18.5122 18.0914 18.5122C18.4262 18.5122 18.7472 18.6451 18.9839 18.8818C19.2206 19.1185 19.3536 19.4396 19.3536 19.7743Z" fill="white"/>
</svg>
