<svg width="41" height="41" viewBox="0 0 41 41" fill="none" xmlns="http://www.w3.org/2000/svg">
<rect x="0.5" y="0.5" width="40" height="40" rx="8.41304" stroke="#F5F5F5"/>
<circle cx="25.7402" cy="16.52" r="9" fill="#BEBABA" stroke="#BEBABA" stroke-width="2"/>
<circle cx="15.7402" cy="16.52" r="9.5" fill="white" stroke="#BEBABA"/>
<path d="M9.23279 33.595C8.87446 33.595 8.57196 33.5159 8.32529 33.3575C8.07863 33.1975 7.89196 32.9767 7.76529 32.695C7.63863 32.4134 7.57529 32.0884 7.57529 31.72C7.57529 31.3517 7.63863 31.0267 7.76529 30.745C7.89196 30.4634 8.07863 30.2434 8.32529 30.085C8.57196 29.925 8.87446 29.845 9.23279 29.845C9.65113 29.845 9.99279 29.9525 10.2578 30.1675C10.5228 30.3809 10.7045 30.6675 10.8028 31.0275L10.4278 31.125C10.3511 30.84 10.2136 30.6142 10.0153 30.4475C9.81696 30.2809 9.55613 30.1975 9.23279 30.1975C8.95113 30.1975 8.71696 30.2617 8.53029 30.39C8.34363 30.5184 8.20279 30.6975 8.10779 30.9275C8.01446 31.1559 7.96613 31.42 7.96279 31.72C7.96113 32.02 8.00696 32.2842 8.10029 32.5125C8.19529 32.7409 8.33696 32.92 8.52529 33.05C8.71529 33.1784 8.95113 33.2425 9.23279 33.2425C9.55613 33.2425 9.81696 33.1592 10.0153 32.9925C10.2136 32.8242 10.3511 32.5984 10.4278 32.315L10.8028 32.4125C10.7045 32.7725 10.5228 33.06 10.2578 33.275C9.99279 33.4884 9.65113 33.595 9.23279 33.595ZM11.3544 33.52V29.92H12.7444C12.7794 29.92 12.8186 29.9217 12.8619 29.925C12.9069 29.9267 12.9519 29.9317 12.9969 29.94C13.1852 29.9684 13.3444 30.0342 13.4744 30.1375C13.6061 30.2392 13.7052 30.3675 13.7719 30.5225C13.8402 30.6775 13.8744 30.8492 13.8744 31.0375C13.8744 31.2242 13.8402 31.395 13.7719 31.55C13.7036 31.705 13.6036 31.8342 13.4719 31.9375C13.3419 32.0392 13.1836 32.1042 12.9969 32.1325C12.9519 32.1392 12.9069 32.1442 12.8619 32.1475C12.8186 32.1509 12.7794 32.1525 12.7444 32.1525H11.7219V33.52H11.3544ZM11.7219 31.8025H12.7344C12.7644 31.8025 12.7994 31.8009 12.8394 31.7975C12.8794 31.7942 12.9186 31.7884 12.9569 31.78C13.0802 31.7534 13.1811 31.7025 13.2594 31.6275C13.3394 31.5525 13.3986 31.4634 13.4369 31.36C13.4769 31.2567 13.4969 31.1492 13.4969 31.0375C13.4969 30.9259 13.4769 30.8184 13.4369 30.715C13.3986 30.61 13.3394 30.52 13.2594 30.445C13.1811 30.37 13.0802 30.3192 12.9569 30.2925C12.9186 30.2842 12.8794 30.2792 12.8394 30.2775C12.7994 30.2742 12.7644 30.2725 12.7344 30.2725H11.7219V31.8025ZM14.0243 33.52L15.2643 29.92H15.7518L16.9918 33.52H16.6093L15.4318 30.125H15.5768L14.4068 33.52H14.0243ZM14.5768 32.6475V32.3025H16.4368V32.6475H14.5768ZM17.4433 33.52V29.92H18.8333C19.0349 29.92 19.2108 29.9617 19.3608 30.045C19.5108 30.1284 19.6274 30.2409 19.7108 30.3825C19.7941 30.5225 19.8358 30.6775 19.8358 30.8475C19.8358 31.0409 19.7841 31.2134 19.6808 31.365C19.5774 31.515 19.4391 31.6192 19.2658 31.6775L19.2608 31.555C19.4941 31.6217 19.6774 31.7384 19.8108 31.905C19.9441 32.0717 20.0108 32.2734 20.0108 32.51C20.0108 32.7184 19.9666 32.8984 19.8783 33.05C19.7899 33.2 19.6658 33.3159 19.5058 33.3975C19.3458 33.4792 19.1599 33.52 18.9483 33.52H17.4433ZM17.8133 33.1675H18.8583C19.0049 33.1675 19.1366 33.1417 19.2533 33.09C19.3699 33.0367 19.4616 32.9617 19.5283 32.865C19.5966 32.7684 19.6308 32.6517 19.6308 32.515C19.6308 32.3817 19.5999 32.2617 19.5383 32.155C19.4766 32.0484 19.3924 31.9634 19.2858 31.9C19.1808 31.835 19.0608 31.8025 18.9258 31.8025H17.8133V33.1675ZM17.8133 31.455H18.8308C18.9458 31.455 19.0508 31.4292 19.1458 31.3775C19.2408 31.3242 19.3158 31.2517 19.3708 31.16C19.4274 31.0684 19.4558 30.9625 19.4558 30.8425C19.4558 30.6725 19.3966 30.5342 19.2783 30.4275C19.1616 30.3209 19.0124 30.2675 18.8308 30.2675H17.8133V31.455ZM20.5097 33.52V29.92H20.8772V31.5425H22.8672V29.92H23.2322V33.52H22.8672V31.895H20.8772V33.52H20.5097ZM26.655 33.52H26.285V30.5675L24.3025 33.52H23.9325V29.92H24.3025V32.87L26.285 29.92H26.655V33.52ZM28.3129 33.52V30.2725H27.0554V29.92H29.9379V30.2725H28.6804V33.52H28.3129ZM30.3363 33.52V29.92H30.7038V31.2875H31.7263C31.7613 31.2875 31.8004 31.2892 31.8438 31.2925C31.8888 31.2942 31.9346 31.2992 31.9813 31.3075C32.1679 31.3359 32.3263 31.4017 32.4563 31.505C32.5879 31.6067 32.6871 31.735 32.7538 31.89C32.8221 32.045 32.8563 32.2159 32.8563 32.4025C32.8563 32.5909 32.8221 32.7625 32.7538 32.9175C32.6871 33.0725 32.5879 33.2017 32.4563 33.305C32.3263 33.4067 32.1679 33.4717 31.9813 33.5C31.9346 33.5067 31.8888 33.5117 31.8438 33.515C31.8004 33.5184 31.7613 33.52 31.7263 33.52H30.3363ZM30.7038 33.1675H31.7163C31.7479 33.1675 31.7838 33.1659 31.8238 33.1625C31.8638 33.1592 31.9029 33.1542 31.9413 33.1475C32.0629 33.1209 32.1638 33.07 32.2438 32.995C32.3238 32.92 32.3829 32.8309 32.4213 32.7275C32.4596 32.6225 32.4788 32.5142 32.4788 32.4025C32.4788 32.2909 32.4596 32.1834 32.4213 32.08C32.3829 31.9767 32.3238 31.8875 32.2438 31.8125C32.1638 31.7375 32.0629 31.6867 31.9413 31.66C31.9029 31.6517 31.8638 31.6459 31.8238 31.6425C31.7838 31.6392 31.7479 31.6375 31.7163 31.6375H30.7038V33.1675Z" fill="#313131"/>
</svg>
