<svg width="31" height="30" viewBox="0 0 31 30" fill="none" xmlns="http://www.w3.org/2000/svg">
<circle cx="19" cy="10" r="9.1333" fill="#00B0F2" stroke="#00B0F2" stroke-width="1.73341"/>
<circle cx="10" cy="10" r="9.56665" fill="white" stroke="#00B0F2" stroke-width="0.866704"/>
<path d="M2.29107 28.09C1.86107 28.09 1.49807 27.995 1.20207 27.805C0.90607 27.613 0.68207 27.348 0.53007 27.01C0.37807 26.672 0.30207 26.282 0.30207 25.84C0.30207 25.398 0.37807 25.008 0.53007 24.67C0.68207 24.332 0.90607 24.068 1.20207 23.878C1.49807 23.686 1.86107 23.59 2.29107 23.59C2.79307 23.59 3.20307 23.719 3.52107 23.977C3.83907 24.233 4.05707 24.577 4.17507 25.009L3.72507 25.126C3.63307 24.784 3.46807 24.513 3.23007 24.313C2.99207 24.113 2.67907 24.013 2.29107 24.013C1.95307 24.013 1.67207 24.09 1.44807 24.244C1.22407 24.398 1.05507 24.613 0.94107 24.889C0.82907 25.163 0.77107 25.48 0.76707 25.84C0.76507 26.2 0.82007 26.517 0.93207 26.791C1.04607 27.065 1.21607 27.28 1.44207 27.436C1.67007 27.59 1.95307 27.667 2.29107 27.667C2.67907 27.667 2.99207 27.567 3.23007 27.367C3.46807 27.165 3.63307 26.894 3.72507 26.554L4.17507 26.671C4.05707 27.103 3.83907 27.448 3.52107 27.706C3.20307 27.962 2.79307 28.09 2.29107 28.09ZM4.83699 28V23.68H6.50499C6.54699 23.68 6.59399 23.682 6.64599 23.686C6.69999 23.688 6.75399 23.694 6.80799 23.704C7.03399 23.738 7.22499 23.817 7.38099 23.941C7.53899 24.063 7.65799 24.217 7.73799 24.403C7.81999 24.589 7.86099 24.795 7.86099 25.021C7.86099 25.245 7.81999 25.45 7.73799 25.636C7.65599 25.822 7.53599 25.977 7.37799 26.101C7.22199 26.223 7.03199 26.301 6.80799 26.335C6.75399 26.343 6.69999 26.349 6.64599 26.353C6.59399 26.357 6.54699 26.359 6.50499 26.359H5.27799V28H4.83699ZM5.27799 25.939H6.49299C6.52899 25.939 6.57099 25.937 6.61899 25.933C6.66699 25.929 6.71399 25.922 6.75999 25.912C6.90799 25.88 7.02899 25.819 7.12299 25.729C7.21899 25.639 7.28999 25.532 7.33599 25.408C7.38399 25.284 7.40799 25.155 7.40799 25.021C7.40799 24.887 7.38399 24.758 7.33599 24.634C7.28999 24.508 7.21899 24.4 7.12299 24.31C7.02899 24.22 6.90799 24.159 6.75999 24.127C6.71399 24.117 6.66699 24.111 6.61899 24.109C6.57099 24.105 6.52899 24.103 6.49299 24.103H5.27799V25.939ZM8.0409 28L9.5289 23.68H10.1139L11.6019 28H11.1429L9.7299 23.926H9.9039L8.4999 28H8.0409ZM8.7039 26.953V26.539H10.9359V26.953H8.7039ZM12.1436 28V23.68H13.8116C14.0536 23.68 14.2646 23.73 14.4446 23.83C14.6246 23.93 14.7646 24.065 14.8646 24.235C14.9646 24.403 15.0146 24.589 15.0146 24.793C15.0146 25.025 14.9526 25.232 14.8286 25.414C14.7046 25.594 14.5386 25.719 14.3306 25.789L14.3246 25.642C14.6046 25.722 14.8246 25.862 14.9846 26.062C15.1446 26.262 15.2246 26.504 15.2246 26.788C15.2246 27.038 15.1716 27.254 15.0656 27.436C14.9596 27.616 14.8106 27.755 14.6186 27.853C14.4266 27.951 14.2036 28 13.9496 28H12.1436ZM12.5876 27.577H13.8416C14.0176 27.577 14.1756 27.546 14.3156 27.484C14.4556 27.42 14.5656 27.33 14.6456 27.214C14.7276 27.098 14.7686 26.958 14.7686 26.794C14.7686 26.634 14.7316 26.49 14.6576 26.362C14.5836 26.234 14.4826 26.132 14.3546 26.056C14.2286 25.978 14.0846 25.939 13.9226 25.939H12.5876V27.577ZM12.5876 25.522H13.8086C13.9466 25.522 14.0726 25.491 14.1866 25.429C14.3006 25.365 14.3906 25.278 14.4566 25.168C14.5246 25.058 14.5586 24.931 14.5586 24.787C14.5586 24.583 14.4876 24.417 14.3456 24.289C14.2056 24.161 14.0266 24.097 13.8086 24.097H12.5876V25.522ZM15.8233 28V23.68H16.2643V25.627H18.6523V23.68H19.0903V28H18.6523V26.05H16.2643V28H15.8233ZM23.1977 28H22.7537V24.457L20.3747 28H19.9307V23.68H20.3747V27.22L22.7537 23.68H23.1977V28ZM25.1872 28V24.103H23.6782V23.68H27.1372V24.103H25.6282V28H25.1872ZM27.6152 28V23.68H28.0562V25.321H29.2832C29.3252 25.321 29.3722 25.323 29.4242 25.327C29.4782 25.329 29.5332 25.335 29.5892 25.345C29.8132 25.379 30.0032 25.458 30.1592 25.582C30.3172 25.704 30.4362 25.858 30.5162 26.044C30.5982 26.23 30.6392 26.435 30.6392 26.659C30.6392 26.885 30.5982 27.091 30.5162 27.277C30.4362 27.463 30.3172 27.618 30.1592 27.742C30.0032 27.864 29.8132 27.942 29.5892 27.976C29.5332 27.984 29.4782 27.99 29.4242 27.994C29.3722 27.998 29.3252 28 29.2832 28H27.6152ZM28.0562 27.577H29.2712C29.3092 27.577 29.3522 27.575 29.4002 27.571C29.4482 27.567 29.4952 27.561 29.5412 27.553C29.6872 27.521 29.8082 27.46 29.9042 27.37C30.0002 27.28 30.0712 27.173 30.1172 27.049C30.1632 26.923 30.1862 26.793 30.1862 26.659C30.1862 26.525 30.1632 26.396 30.1172 26.272C30.0712 26.148 30.0002 26.041 29.9042 25.951C29.8082 25.861 29.6872 25.8 29.5412 25.768C29.4952 25.758 29.4482 25.751 29.4002 25.747C29.3522 25.743 29.3092 25.741 29.2712 25.741H28.0562V27.577Z" fill="black"/>
</svg>
