<svg width="16" height="12" viewBox="0 0 16 12" fill="none" xmlns="http://www.w3.org/2000/svg">
<path d="M16 9.99995C16 10.3507 15.9013 10.6759 15.7433 10.962L10.6914 5.30966L15.6885 0.937654C15.8829 1.24614 16 1.60851 16 2.00009V9.99995ZM8.00002 6.33595L14.9533 0.251998C14.668 0.0957934 14.3467 0 14.0001 0H1.99999C1.65296 0 1.33155 0.0957934 1.04736 0.251998L8.00002 6.33595ZM9.93855 5.96788L8.32905 7.37705C8.23491 7.45906 8.11768 7.50002 8.00002 7.50002C7.8823 7.50002 7.76507 7.45906 7.67093 7.37705L6.06107 5.96782L0.945305 11.6924C1.25194 11.8848 1.61131 12 1.99996 12H14.0001C14.3886 12 14.7482 11.8848 15.0547 11.6924L9.93855 5.96788ZM0.311551 0.937622C0.117194 1.24611 0 1.60847 0 2.00009V9.99998C0 10.3507 0.0982006 10.6759 0.256845 10.962L5.30811 5.3087L0.311551 0.937622Z" fill="#313131"/>
</svg>
