<svg width="300" height="56" viewBox="0 0 300 56" fill="none" xmlns="http://www.w3.org/2000/svg">
<path d="M0 55.1742V0.875783H59.3861V55.1742H42.0772V13.7936H17.3089V55.1742H0Z" fill="white" fill-opacity="0.4"/>
<path d="M110.088 38.3884H89.4481V55.1742H72.1392V0.875783H110.088C128.628 0.875783 133.915 8.3929 133.915 19.0482V19.924C133.915 30.5064 128.484 38.3884 110.088 38.3884ZM89.4481 13.9395V25.3977H108.64C114.072 25.3977 115.955 23.1352 115.955 19.7051V19.4861C115.955 16.2749 114.072 13.9395 108.64 13.9395H89.4481Z" fill="white" fill-opacity="0.4"/>
<path d="M174.996 0H178.255C205.196 0 211.786 15.2532 211.786 26.7843V28.9738C211.786 40.3589 205.268 56.05 178.255 56.05H174.996C148.055 56.05 141.464 40.3589 141.464 28.9738V26.7843C141.464 15.2532 148.055 0 174.996 0ZM193.753 28.3169V27.3682C193.753 21.4566 191.001 13.5746 176.661 13.5746C162.249 13.5746 159.497 21.4566 159.497 27.3682V28.3169C159.497 34.2285 162.539 42.3294 176.661 42.3294C191.001 42.3294 193.753 34.2285 193.753 28.3169Z" fill="white" fill-opacity="0.4"/>
<path d="M222.146 55.1742V0.875783H245.611L261.471 34.6663L277.694 0.875783H300V55.1742H283.053V20.5079L266.903 55.1742H254.881L238.803 20.5079V55.1742H222.146Z" fill="white" fill-opacity="0.4"/>
</svg>
