<svg width="110" height="29" viewBox="0 0 110 29" fill="none" xmlns="http://www.w3.org/2000/svg">
<path d="M3.01758 15.9962V6.98841C3.3904 7.20194 3.79068 7.38392 4.12489 7.43817V14.8511L3.01758 15.9962ZM13.3639 21.6857H3.01758V17.8239L4.12489 16.6795V20.5783H12.6134C12.752 21.0218 12.9823 21.3937 13.3639 21.6854V21.6857ZM23.0359 18.0738V21.6854L16.9865 21.6567C17.3361 21.1251 17.8812 20.7546 18.3854 20.5712H21.9291V18.794C22.414 18.6662 22.8692 18.3012 23.0359 18.0738ZM14.0199 1.66666H23.0359V14.4202C22.7083 14.2321 22.3507 14.1437 21.9286 14.1682V2.77358H14.3227L14.0199 1.66666ZM6.5301 1.66666H12.7278L13.0304 2.77384H8.00806C7.63177 2.31099 7.25497 2.0509 6.5301 1.66666Z" fill="white"/>
<path fill-rule="evenodd" clip-rule="evenodd" d="M14.1264 21.5608C13.4467 20.6945 13.5939 19.0627 14.1146 18.4109C14.3427 18.6614 14.6285 18.8524 14.9471 18.9675L14.1264 21.5608ZM15.1076 21.4198C15.1251 21.4198 15.1423 21.425 15.1569 21.4348C15.1716 21.4445 15.183 21.4584 15.1896 21.4747C15.1964 21.4909 15.1981 21.5088 15.1947 21.5261C15.1912 21.5433 15.1828 21.5592 15.1703 21.5716C15.1579 21.584 15.1421 21.5924 15.1248 21.5958C15.1076 21.5993 15.0896 21.5975 15.0735 21.5908C15.0572 21.584 15.0433 21.5726 15.0336 21.5579C15.0238 21.5433 15.0186 21.5261 15.0186 21.5085C15.0186 21.4968 15.021 21.4853 15.0254 21.4745C15.0299 21.4638 15.0365 21.454 15.0447 21.4458C15.053 21.4375 15.0627 21.4309 15.0736 21.4265C15.0843 21.4221 15.0959 21.4198 15.1076 21.4198ZM23.2458 15.8538C23.2634 15.8538 23.2806 15.8589 23.2951 15.8687C23.3098 15.8785 23.3212 15.8923 23.3279 15.9086C23.3347 15.9248 23.3364 15.9427 23.333 15.9599C23.3296 15.9772 23.3211 15.993 23.3086 16.0054C23.2962 16.0178 23.2804 16.0263 23.2632 16.0298C23.2459 16.0332 23.2281 16.0314 23.2118 16.0247C23.1956 16.018 23.1816 16.0066 23.1719 15.992C23.1621 15.9773 23.1569 15.9602 23.1569 15.9426C23.157 15.9191 23.1663 15.8965 23.183 15.8798C23.1996 15.8632 23.2222 15.8538 23.2458 15.8538V15.8538ZM17.6223 16.2783C18.8371 15.8295 20.0821 16.0969 21.3428 15.7473C21.7466 15.6353 22.3868 15.2693 22.7165 15.2556C23.415 15.2264 24.085 15.9167 23.8031 16.5328C23.7151 16.7252 23.5124 16.8742 23.3168 17.0298C22.4949 17.6832 21.4758 18.2225 20.5319 18.5752C18.6909 19.2621 17.9438 19.3658 16.7494 20.8637C16.2982 21.4295 15.4421 22.4857 14.502 21.9008C14.4326 21.8574 14.3671 21.8082 14.3062 21.7535L15.1671 19.0333C15.5354 19.1229 15.9212 19.1106 16.2831 18.9978C16.6451 18.885 16.9695 18.6759 17.2217 18.3929C17.4739 18.1098 17.6445 17.7636 17.715 17.3912C17.7856 17.0187 17.7535 16.634 17.6223 16.2783Z" fill="white"/>
<path fill-rule="evenodd" clip-rule="evenodd" d="M14.2216 15.4398L13.2583 13.0148L14.6791 12.4547L15.6546 14.8914C15.1248 14.8866 14.6128 15.0825 14.2216 15.4398" fill="white"/>
<path fill-rule="evenodd" clip-rule="evenodd" d="M11.6769 6.6211C11.7167 6.61923 11.7566 6.62548 11.7939 6.63945C11.8313 6.65341 11.8655 6.67482 11.8943 6.70236C11.9231 6.72991 11.9461 6.76302 11.9618 6.7997C11.9776 6.83637 11.9856 6.87586 11.9856 6.91575C11.9856 6.95564 11.9776 6.99512 11.9618 7.0318C11.9461 7.06848 11.9231 7.10159 11.8943 7.12913C11.8655 7.15668 11.8313 7.17808 11.7939 7.19205C11.7566 7.20602 11.7167 7.21226 11.6769 7.21041C11.6646 7.21039 11.6523 7.20966 11.6401 7.20822L11.6905 7.12127C11.7346 7.11846 11.7766 7.10155 11.8104 7.07303C11.8441 7.04451 11.8678 7.00591 11.878 6.9629C11.8881 6.91989 11.8841 6.87476 11.8667 6.83416C11.8492 6.79357 11.8192 6.75966 11.781 6.73745C11.7428 6.71522 11.6985 6.70586 11.6546 6.71076C11.6106 6.71565 11.5695 6.73451 11.5371 6.76459C11.5047 6.79466 11.4829 6.83435 11.4747 6.87779C11.4666 6.92122 11.4727 6.96612 11.4921 7.00585L11.4416 7.0928C11.4089 7.04902 11.389 6.99701 11.3841 6.94256C11.3791 6.88811 11.3895 6.83336 11.4139 6.78444C11.4383 6.73551 11.4758 6.69433 11.5222 6.66548C11.5686 6.63664 11.6222 6.62127 11.6769 6.6211ZM12.2125 7.93681C12.3729 7.85263 12.5112 7.73183 12.6162 7.5842C12.7213 7.43657 12.7901 7.26627 12.817 7.08711C12.8439 6.90795 12.8282 6.72496 12.7712 6.55299C12.7142 6.38101 12.6175 6.22489 12.4889 6.09727C12.3603 5.96966 12.2035 5.87414 12.0311 5.81846C11.8586 5.76278 11.6756 5.74851 11.4966 5.77681C11.3176 5.80511 11.1479 5.87517 11.0011 5.98132C10.8542 6.08748 10.7345 6.22674 10.6516 6.38781L11.3261 6.6302C11.3665 6.58056 11.4169 6.54006 11.4741 6.51136C11.5312 6.48266 11.5938 6.46642 11.6577 6.46371C11.7216 6.461 11.7854 6.47188 11.8448 6.49564C11.9042 6.5194 11.9579 6.55548 12.0023 6.60151C12.0466 6.64756 12.0808 6.70249 12.1024 6.7627C12.1241 6.82291 12.1326 6.88701 12.1276 6.95078C12.1226 7.01455 12.1041 7.07653 12.0734 7.13262C12.0426 7.18872 12.0003 7.23766 11.9493 7.2762L12.2125 7.93681ZM11.2012 7.96605C11.2303 7.97888 11.2602 7.99171 11.291 8.00222C11.5183 8.08344 11.7655 8.09085 11.9972 8.02338L11.7407 7.36341C11.7195 7.36641 11.6981 7.36791 11.6766 7.3679C11.6361 7.36791 11.5958 7.36248 11.5567 7.35174L11.2012 7.96605ZM10.5695 6.59545C10.5036 6.82386 10.5099 7.06704 10.5876 7.29171C10.6652 7.5164 10.8104 7.71161 11.0032 7.85063L11.3586 7.2367C11.3061 7.18466 11.2673 7.1206 11.2453 7.05009C11.2234 6.97959 11.219 6.90479 11.2325 6.8322L10.5695 6.59545ZM11.6773 6.84541C11.6911 6.84538 11.7046 6.84944 11.716 6.85708C11.7275 6.86471 11.7364 6.87558 11.7417 6.88831C11.747 6.90103 11.7484 6.91503 11.7457 6.92855C11.7431 6.94206 11.7364 6.95449 11.7267 6.96424C11.717 6.97399 11.7046 6.98064 11.6911 6.98334C11.6776 6.98603 11.6635 6.98466 11.6508 6.9794C11.6381 6.97413 11.6271 6.9652 11.6195 6.95375C11.6119 6.94229 11.6077 6.92882 11.6077 6.91504C11.6079 6.89673 11.6151 6.87919 11.6281 6.86623C11.6411 6.85326 11.6586 6.84592 11.6769 6.84579L11.6773 6.84541ZM10.2721 9.11324C10.2155 9.07857 10.1516 9.05741 10.0854 9.05166C10.0192 9.04591 9.95264 9.05557 9.89089 9.07991C9.67514 8.59332 9.41523 8.00504 9.21973 7.55091L10.2051 7.80921C10.3359 8.0214 10.5114 8.20244 10.7195 8.33965L10.2721 9.11324ZM10.4432 9.31399C10.4401 9.30649 10.4368 9.29924 10.4334 9.2919L10.9193 8.45274C11.3185 8.64599 11.7769 8.67716 12.1985 8.53957L12.8324 10.1714L10.4432 9.31399ZM12.8492 10.4207C12.5449 10.5482 12.2825 10.6567 12.1408 10.7187C10.738 11.3315 10.8936 11.3634 10.2802 9.95807C10.2699 9.93407 10.2554 9.90124 10.2374 9.86057C10.2954 9.83191 10.3461 9.79049 10.3858 9.73941C10.4255 9.68832 10.4531 9.62891 10.4665 9.56557L12.8492 10.4207ZM14.3197 9.09232C14.3373 9.09232 14.3545 9.09757 14.3691 9.10732C14.3837 9.11707 14.3951 9.13099 14.4019 9.14724C14.4086 9.16349 14.4103 9.18132 14.4069 9.19857C14.4035 9.21582 14.3951 9.23166 14.3826 9.24407C14.3701 9.25649 14.3543 9.26499 14.3371 9.26841C14.3198 9.27182 14.302 9.27007 14.2857 9.26332C14.2695 9.25657 14.2556 9.24524 14.2458 9.23057C14.2361 9.21599 14.2309 9.19882 14.2309 9.18124C14.231 9.15782 14.2403 9.13532 14.2569 9.11874C14.2735 9.10216 14.2959 9.09282 14.3194 9.09274L14.3197 9.09232ZM11.0106 10.5712C11.0282 10.5712 11.0454 10.5764 11.06 10.5862C11.0746 10.596 11.086 10.6098 11.0927 10.6261C11.0995 10.6423 11.1012 10.6602 11.0978 10.6774C11.0944 10.6947 11.0859 10.7105 11.0735 10.7229C11.0611 10.7353 11.0452 10.7438 11.028 10.7472C11.0107 10.7507 10.9929 10.7489 10.9766 10.7422C10.9604 10.7355 10.9465 10.7241 10.9367 10.7095C10.927 10.6948 10.9217 10.6777 10.9217 10.6601C10.9217 10.6484 10.9241 10.6368 10.9286 10.6261C10.933 10.6153 10.9396 10.6055 10.9478 10.5972C10.9561 10.589 10.9658 10.5824 10.9766 10.578C10.9874 10.5735 10.999 10.5712 11.0106 10.5712ZM12.7497 4.84008C12.7673 4.84008 12.7845 4.8453 12.7991 4.85506C12.8137 4.86482 12.8251 4.87871 12.8318 4.89495C12.8386 4.91119 12.8403 4.92906 12.8369 4.9463C12.8335 4.96354 12.825 4.97937 12.8126 4.99181C12.8001 5.00423 12.7843 5.0127 12.7671 5.01613C12.7498 5.01956 12.732 5.0178 12.7157 5.01107C12.6995 5.00435 12.6856 4.99296 12.6758 4.97834C12.6661 4.96372 12.6608 4.94654 12.6608 4.92896C12.6608 4.90539 12.6702 4.88278 12.6869 4.86611C12.7036 4.84945 12.7261 4.84008 12.7497 4.84008ZM14.6521 9.57974C14.4903 9.71499 13.7886 10.0238 13.1516 10.2934L12.4173 8.45107C12.6977 8.31466 12.9357 8.10445 13.1057 7.84302C13.2757 7.58159 13.3714 7.27881 13.3824 6.96716C13.3935 6.65549 13.3194 6.34671 13.1683 6.07393C13.0171 5.80115 12.7946 5.57466 12.5245 5.41875L12.1561 4.52676C13.4325 4.5537 13.6439 5.03592 13.9197 6.00434C14.1711 6.88786 14.4591 7.91116 14.5546 8.36416C14.6282 8.58216 14.6811 8.80315 14.7436 9.02566C14.8236 9.30957 14.7932 9.38524 14.6526 9.57974H14.6521Z" fill="white"/>
<path fill-rule="evenodd" clip-rule="evenodd" d="M6.45574 4.88331C6.58656 4.63104 6.80509 4.44611 7.05852 4.48356L10.4584 5.69244C10.3112 5.83695 10.1914 6.00698 10.105 6.19428L6.45574 4.88331ZM9.95583 7.10704L6.56848 5.91406C6.32185 5.76016 6.28029 5.41657 6.36866 5.1039L10.0238 6.40461C9.95249 6.63148 9.92933 6.87072 9.95583 7.10704Z" fill="white"/>
<path fill-rule="evenodd" clip-rule="evenodd" d="M6.41592 3.00907C6.44382 3.00907 6.47109 3.01735 6.49429 3.03285C6.51749 3.04835 6.53558 3.07039 6.54625 3.09616C6.55694 3.12194 6.55973 3.1503 6.55429 3.17767C6.54884 3.20504 6.5354 3.23018 6.51568 3.2499C6.49594 3.26964 6.4708 3.28307 6.44344 3.28851C6.41608 3.29395 6.38771 3.29116 6.36193 3.28049C6.33615 3.26981 6.31412 3.25173 6.29862 3.22853C6.28312 3.20533 6.27484 3.17805 6.27484 3.15015C6.27484 3.11274 6.2897 3.07685 6.31616 3.0504C6.34262 3.02394 6.3785 3.00907 6.41592 3.00907ZM5.17407 6.23765C5.20197 6.23765 5.22924 6.24592 5.25244 6.26142C5.27564 6.27693 5.29373 6.29896 5.3044 6.32474C5.31509 6.35051 5.31788 6.37888 5.31244 6.40625C5.30699 6.43361 5.29355 6.45875 5.27383 6.47848C5.25409 6.49821 5.22896 6.51165 5.20159 6.51709C5.17423 6.52253 5.14586 6.51974 5.12009 6.50906C5.0943 6.49838 5.07227 6.4803 5.05677 6.4571C5.04127 6.4339 5.03299 6.40663 5.03299 6.37872C5.03299 6.3413 5.04786 6.30543 5.07431 6.27897C5.10077 6.25251 5.13665 6.23765 5.17407 6.23765ZM2.08747 5.52817C2.11537 5.52817 2.14264 5.53645 2.16584 5.55195C2.18904 5.56745 2.20713 5.58948 2.2178 5.61525C2.22849 5.64104 2.23128 5.6694 2.22584 5.69676C2.22039 5.72413 2.20695 5.74927 2.18723 5.769C2.16749 5.78873 2.14236 5.80216 2.11499 5.8076C2.08763 5.81305 2.05926 5.81025 2.03349 5.79958C2.0077 5.7889 1.98567 5.77082 1.97017 5.74762C1.95467 5.72442 1.94639 5.69715 1.94639 5.66925C1.94639 5.63183 1.96126 5.59595 1.98771 5.56949C2.01417 5.54303 2.05005 5.52817 2.08747 5.52817ZM4.59412 1.99423C4.62203 1.99423 4.6493 2.0025 4.6725 2.018C4.6957 2.0335 4.71378 2.05554 4.72446 2.08132C4.73514 2.1071 4.73793 2.13546 4.73249 2.16283C4.72704 2.1902 4.71361 2.21533 4.69388 2.23506C4.67414 2.25479 4.64901 2.26823 4.62164 2.27367C4.59428 2.27911 4.56591 2.27632 4.54014 2.26565C4.51436 2.25496 4.49233 2.23688 4.47682 2.21368C4.46132 2.19048 4.45304 2.1632 4.45304 2.1353C4.45304 2.09789 4.46791 2.062 4.49437 2.03555C4.52083 2.0091 4.55671 1.99423 4.59412 1.99423ZM6.92097 3.08756C6.83119 3.36048 6.70217 3.71035 6.55712 4.0915C5.87599 4.35045 5.65399 5.14316 5.90728 5.75376C5.77339 6.09234 5.6786 6.33217 5.57793 6.59265C5.49046 6.81952 5.45622 6.7772 4.96079 6.74424C3.9167 6.67485 2.86287 6.38052 1.91087 5.9169C1.63731 5.78365 1.61923 5.8152 1.73055 5.52689C2.56418 4.36058 3.54209 2.8135 4.41611 1.74209C4.49063 1.65078 4.58284 1.70105 4.75418 1.75222C4.93514 1.80609 5.13047 1.87098 5.31399 1.93908C6.02873 2.20482 6.66178 2.61329 6.92097 3.08756Z" fill="white"/>
<path fill-rule="evenodd" clip-rule="evenodd" d="M15.7159 16.5528C15.8243 16.5528 15.9282 16.5958 16.0049 16.6725C16.0816 16.7492 16.1246 16.8532 16.1246 16.9616C16.1246 17.0699 16.0816 17.1739 16.0049 17.2506C15.9282 17.3272 15.8243 17.3702 15.7159 17.3702C15.7059 17.3702 15.6959 17.3702 15.686 17.3692L15.7245 17.247C15.7901 17.2451 15.8529 17.2207 15.9026 17.1778C15.9523 17.135 15.9857 17.0764 15.9973 17.0118C16.009 16.9472 15.998 16.8807 15.9663 16.8232C15.9346 16.7658 15.8841 16.721 15.8234 16.6963C15.7626 16.6717 15.6951 16.6687 15.6325 16.6879C15.5697 16.7071 15.5155 16.7472 15.4789 16.8017C15.4422 16.856 15.4254 16.9214 15.4312 16.9867C15.4371 17.0521 15.4652 17.1134 15.5109 17.1605L15.4704 17.2887C15.4018 17.2372 15.3511 17.1654 15.3256 17.0836C15.3 17.0017 15.3009 16.9138 15.328 16.8325C15.3551 16.7511 15.4071 16.6803 15.4768 16.6302C15.5464 16.5801 15.63 16.5531 15.7157 16.5531M15.7157 16.8708C15.7337 16.8708 15.7513 16.8762 15.7662 16.8862C15.7812 16.8962 15.7929 16.9104 15.7997 16.927C15.8066 16.9436 15.8084 16.9619 15.8049 16.9795C15.8014 16.9972 15.7927 17.0134 15.7801 17.0261C15.7673 17.0388 15.7511 17.0475 15.7335 17.051C15.7158 17.0545 15.6976 17.0527 15.681 17.0458C15.6643 17.0389 15.6501 17.0272 15.6401 17.0123C15.6301 16.9973 15.6248 16.9797 15.6248 16.9618C15.6248 16.9498 15.6271 16.9379 15.6316 16.9268C15.6362 16.9157 15.643 16.9057 15.6515 16.8972C15.6599 16.8887 15.67 16.8821 15.6811 16.8775C15.6921 16.8729 15.704 16.8706 15.716 16.8706L15.7157 16.8708ZM15.3515 18.4257C15.5787 18.4822 15.8161 18.485 16.0446 18.4339C16.2731 18.3829 16.4866 18.2793 16.6681 18.1315C16.8497 17.9836 16.9944 17.7955 17.0907 17.582C17.187 17.3686 17.2322 17.1357 17.2229 16.9017C17.2136 16.6677 17.1499 16.4391 17.0369 16.234C16.924 16.0288 16.7648 15.8529 16.572 15.7199C16.3792 15.587 16.1581 15.5007 15.9263 15.4681C15.6944 15.4354 15.4581 15.4571 15.2361 15.5316L15.567 16.3523C15.6571 16.3304 15.751 16.3288 15.8418 16.3475C15.9326 16.3662 16.0182 16.4049 16.0923 16.4607C16.1664 16.5165 16.2272 16.588 16.2703 16.6702C16.3135 16.7522 16.3378 16.8429 16.3417 16.9356C16.3456 17.0282 16.3288 17.1207 16.2927 17.2061C16.2566 17.2915 16.2019 17.3678 16.1327 17.4296C16.0636 17.4914 15.9815 17.537 15.8926 17.5632C15.8036 17.5895 15.7099 17.5957 15.6182 17.5814L15.3515 18.4257ZM15.0073 15.6298C14.7551 15.7639 14.5462 15.9668 14.4049 16.2149C14.2635 16.4631 14.1955 16.7462 14.2086 17.0315C14.2219 17.3167 14.3158 17.5924 14.4795 17.8264C14.6431 18.0605 14.8699 18.2432 15.1334 18.3534L15.4019 17.5049C15.3124 17.4532 15.2371 17.3802 15.1826 17.2923C15.1282 17.2044 15.0963 17.1045 15.0898 17.0013C15.0833 16.8982 15.1024 16.795 15.1454 16.701C15.1884 16.607 15.254 16.5251 15.3362 16.4625L15.0073 15.6298Z" fill="white"/>
<path fill-rule="evenodd" clip-rule="evenodd" d="M12.5262 12.2495C12.5438 12.2495 12.561 12.2548 12.5757 12.2646C12.5902 12.2743 12.6016 12.2883 12.6083 12.3045C12.615 12.3208 12.6167 12.3386 12.6132 12.3558C12.6098 12.3731 12.6013 12.3889 12.5889 12.4013C12.5764 12.4138 12.5606 12.4222 12.5433 12.4256C12.5261 12.429 12.5082 12.4272 12.492 12.4204C12.4757 12.4137 12.4619 12.4023 12.4522 12.3877C12.4424 12.373 12.4372 12.3558 12.4372 12.3383C12.4372 12.3266 12.4396 12.315 12.4441 12.3043C12.4485 12.2934 12.4551 12.2837 12.4633 12.2754C12.4716 12.2672 12.4814 12.2606 12.4922 12.2562C12.503 12.2518 12.5146 12.2495 12.5262 12.2495ZM14.6127 11.3071C14.6303 11.3071 14.6475 11.3123 14.6622 11.3221C14.6767 11.3318 14.6882 11.3458 14.6949 11.362C14.7016 11.3783 14.7034 11.3961 14.6999 11.4133C14.6965 11.4306 14.6881 11.4464 14.6756 11.4588C14.6632 11.4713 14.6473 11.4798 14.6301 11.4832C14.6129 11.4866 14.595 11.4848 14.5787 11.4781C14.5625 11.4714 14.5487 11.46 14.5389 11.4453C14.5291 11.4308 14.5239 11.4136 14.5239 11.396C14.5239 11.3843 14.5262 11.3728 14.5307 11.362C14.5352 11.3512 14.5417 11.3414 14.5499 11.3332C14.5582 11.3249 14.568 11.3183 14.5787 11.3139C14.5896 11.3094 14.6011 11.3071 14.6127 11.3071ZM11.8096 11.5783L14.6301 10.3472C15.2585 11.6443 15.079 11.529 13.7421 12.1122C12.5476 12.6333 12.2881 13.0223 11.8096 11.5783Z" fill="white"/>
<path fill-rule="evenodd" clip-rule="evenodd" d="M10.0482 9.34308C10.0747 9.34308 10.1008 9.35091 10.123 9.36575C10.1452 9.3805 10.1624 9.4015 10.1727 9.42616C10.1828 9.45075 10.1855 9.47783 10.1803 9.50391C10.1752 9.53008 10.1623 9.55408 10.1435 9.57291C10.1247 9.59175 10.1007 9.60458 10.0746 9.60983C10.0484 9.615 10.0213 9.61233 9.99674 9.60216C9.97216 9.592 9.95107 9.57475 9.93632 9.55258C9.92149 9.53041 9.91357 9.50441 9.91357 9.47775C9.91357 9.46008 9.91707 9.44258 9.92382 9.42625C9.93057 9.40991 9.94049 9.39508 9.95291 9.3825C9.96541 9.37 9.98024 9.36008 9.99657 9.35333C10.0129 9.34658 10.0304 9.34308 10.0482 9.34308Z" fill="white"/>
<path d="M10.3281 4.97477C10.7522 4.6276 11.3587 4.47575 11.9124 4.55488L12.0928 4.92745C12.0619 4.92103 12.0309 4.9153 11.9999 4.91025C11.6901 4.86139 11.3731 4.88881 11.0765 4.99015C10.9113 5.04854 10.754 5.1271 10.608 5.22409L10.3281 4.97477Z" fill="white"/>
<path d="M13.4808 17.2255C13.3433 16.674 13.4698 16.0373 13.7895 15.5528L14.1858 15.5391C14.1659 15.5648 14.1469 15.5913 14.1285 15.6187C13.9452 15.8876 13.8303 16.1973 13.7937 16.5208C13.7753 16.7014 13.7794 16.8837 13.8057 17.0633L13.4808 17.2255Z" fill="white"/>
<path fill-rule="evenodd" clip-rule="evenodd" d="M13.1273 10.4138C13.1745 10.4137 13.2206 10.4277 13.2597 10.4538C13.299 10.48 13.3295 10.5172 13.3476 10.5608C13.3657 10.6043 13.3703 10.6522 13.3612 10.6984C13.352 10.7447 13.3293 10.7871 13.296 10.8205C13.2627 10.8538 13.2202 10.8765 13.174 10.8858C13.1277 10.8949 13.0798 10.8902 13.0363 10.8722C12.9927 10.8542 12.9555 10.8236 12.9293 10.7844C12.9032 10.7453 12.8892 10.6992 12.8892 10.652C12.8892 10.6208 12.8953 10.5898 12.9072 10.5608C12.9192 10.5319 12.9367 10.5057 12.9589 10.4835C12.981 10.4614 13.0072 10.4438 13.0362 10.4318C13.0651 10.4199 13.0961 10.4138 13.1273 10.4138Z" fill="white"/>
<path d="M22.2715 4.63721C21.6602 5.16494 20.9471 5.56174 20.1764 5.80309C19.4057 6.04444 18.5937 6.12523 17.7905 6.04046C16.9873 5.95569 16.2101 5.70717 15.5068 5.31024C14.8034 4.9133 14.1889 4.37639 13.7012 3.73266L14.4226 3.18811C14.8353 3.73393 15.3555 4.18924 15.9513 4.52586C16.5469 4.86249 17.2054 5.07326 17.8858 5.14513C18.5663 5.21699 19.2543 5.14844 19.9072 4.94369C20.5601 4.73894 21.164 4.40236 21.6815 3.95479L22.2715 4.63721Z" fill="white"/>
<path d="M5.29036 12.1396C6.14381 12.3513 6.94669 12.7304 7.65239 13.255C8.35806 13.7796 8.95248 14.4391 9.40114 15.1953C9.84981 15.9516 10.1437 16.7894 10.2659 17.6602C10.388 18.531 10.3359 19.4173 10.1126 20.2678L9.33989 19.5068C9.35064 19.4426 9.36014 19.3785 9.36831 19.3144C9.56031 17.8349 9.16606 16.339 8.26978 15.1463C7.3735 13.9536 6.0463 13.1588 4.57178 12.9315L5.29036 12.1396Z" fill="white"/>
<path d="M86.8016 21.7622L88.4316 1.99826H93.6833L96.5583 10.3467L97.5533 13.6082H97.6083C97.9766 12.2812 98.3083 11.1941 98.6033 10.3467L101.478 1.99826H106.73L108.333 21.7622H103.497L102.889 12.8617C102.852 12.4194 102.833 11.9218 102.833 11.3691C102.833 10.8162 102.842 10.374 102.862 10.0423L102.889 9.54341H102.833C102.392 10.9255 102.022 12.0312 101.728 12.8604L99.6549 18.5812H95.5091L93.4358 12.8604L92.3299 9.54341H92.2741C92.3483 10.7594 92.3483 11.8651 92.2741 12.8604L91.6666 21.7609L86.8016 21.7622ZM68.8342 11.7558C68.8342 13.4328 69.3502 14.838 70.3821 15.9713C71.4141 17.1046 72.6764 17.6712 74.1692 17.6712C75.6618 17.6712 76.9241 17.1046 77.9558 15.9713C78.9876 14.838 79.5036 13.4328 79.5038 11.7558C79.5038 10.1527 78.9878 8.80757 77.9558 7.72038C76.9239 6.63321 75.6617 6.08996 74.1692 6.09062C72.6764 6.09062 71.4141 6.63387 70.3821 7.72038C69.3502 8.80691 68.8342 10.1521 68.8342 11.7558ZM63.8312 11.7558C63.8312 8.89966 64.8124 6.50405 66.775 4.56896C68.7376 2.63386 71.2023 1.66643 74.1692 1.66666C77.136 1.66666 79.6007 2.63409 81.5633 4.56896C83.5258 6.50382 84.5074 8.89949 84.5074 11.7558C84.5074 14.6861 83.5258 17.1416 81.5633 19.1224C79.6007 21.1032 77.136 22.0937 74.1692 22.0938C71.2023 22.0938 68.7376 21.1033 66.775 19.1224C64.8124 17.1414 63.8314 14.6859 63.8318 11.7558H63.8312ZM51.5857 14.7413C51.5857 15.6627 51.8296 16.4597 52.3174 17.1324C52.8053 17.8052 53.4918 18.1414 54.3769 18.1412C55.1692 18.1412 55.8326 17.8371 56.3672 17.2288C56.9018 16.6207 57.169 15.7915 57.1688 14.7413C57.1688 13.691 56.9108 12.8432 56.3948 12.1982C55.8788 11.5532 55.2062 11.2307 54.3769 11.2307C53.5846 11.2307 52.9212 11.5256 52.3866 12.1154C51.852 12.7052 51.585 13.5805 51.5857 14.7413ZM46.9418 27.2908V7.52681H51.2541V8.24622L51.1988 9.15824H51.2541C52.2298 7.84998 53.6671 7.19587 55.5663 7.19587C57.5012 7.19587 59.0533 7.88225 60.2228 9.25499C61.3922 10.6277 61.9773 12.4292 61.9779 14.6592C61.9779 16.8889 61.3513 18.685 60.0983 20.0473C58.8453 21.4097 57.2606 22.0915 55.3441 22.0928C53.9804 22.0928 52.7734 21.6414 51.723 20.7385H51.6675C51.708 21.1427 51.7265 21.5487 51.723 21.9548V27.2898L46.9418 27.2908ZM26.7358 21.7622V1.99826H43.4326V21.7622H38.5942V6.11756H31.5729V21.7629L26.7358 21.7622Z" fill="white"/>
</svg>
