<svg width="155" height="41" viewBox="0 0 155 41" fill="none" xmlns="http://www.w3.org/2000/svg">
<path d="M4.2517 22.6154V9.8803C4.77704 10.1822 5.34107 10.4395 5.81201 10.5162V20.9965L4.2517 22.6154ZM18.8306 30.6593H4.2517V25.1995L5.81201 23.5815V29.0936H17.7731C17.9684 29.7206 18.293 30.2465 18.8306 30.6588V30.6593ZM32.4594 25.5528V30.6588L23.9352 30.6183C24.4278 29.8666 25.1959 29.3428 25.9064 29.0835H30.8997V26.5709C31.583 26.3903 32.2244 25.8743 32.4594 25.5528ZM19.755 2.35645H32.4594V20.3873C31.9978 20.1213 31.4938 19.9963 30.899 20.0311V3.92141H20.1816L19.755 2.35645ZM9.20116 2.35645H17.9342L18.3607 3.92177H11.2837C10.7535 3.2674 10.2226 2.89968 9.20116 2.35645Z" fill="white"/>
<path fill-rule="evenodd" clip-rule="evenodd" d="M19.9056 30.483C18.9479 29.2582 19.1553 26.9511 19.8891 26.0296C20.2104 26.3838 20.6131 26.6538 21.062 26.8165L19.9056 30.483ZM21.2882 30.2835C21.3129 30.2835 21.3371 30.2909 21.3577 30.3047C21.3783 30.3185 21.3944 30.3382 21.4038 30.3611C21.4133 30.3841 21.4158 30.4094 21.411 30.4338C21.4061 30.4581 21.3942 30.4806 21.3766 30.4982C21.3591 30.5157 21.3368 30.5276 21.3125 30.5324C21.2882 30.5373 21.2629 30.5348 21.2401 30.5253C21.2172 30.5157 21.1976 30.4996 21.1839 30.4788C21.1702 30.4582 21.1629 30.4338 21.1629 30.409C21.1629 30.3925 21.1662 30.3762 21.1724 30.3609C21.1787 30.3457 21.188 30.3319 21.1996 30.3203C21.2113 30.3086 21.225 30.2993 21.2403 30.293C21.2554 30.2868 21.2717 30.2835 21.2882 30.2835ZM32.7557 22.4143C32.7805 22.4143 32.8047 22.4216 32.8252 22.4354C32.8459 22.4493 32.8619 22.4689 32.8714 22.4919C32.8809 22.5148 32.8833 22.54 32.8785 22.5644C32.8737 22.5888 32.8617 22.6112 32.8442 22.6288C32.8267 22.6463 32.8044 22.6583 32.7801 22.6632C32.7558 22.668 32.7307 22.6655 32.7078 22.656C32.6849 22.6465 32.6653 22.6304 32.6515 22.6098C32.6378 22.5891 32.6304 22.5648 32.6304 22.5399C32.6305 22.5067 32.6437 22.4748 32.6672 22.4512C32.6906 22.4276 32.7225 22.4144 32.7557 22.4144V22.4143ZM24.8317 23.0146C26.5434 22.38 28.2978 22.7581 30.0742 22.2638C30.6431 22.1055 31.5453 21.588 32.0098 21.5686C32.9941 21.5274 33.9382 22.5033 33.5409 23.3744C33.4169 23.6463 33.1313 23.857 32.8557 24.077C31.6976 25.0007 30.2616 25.7633 28.9315 26.2618C26.3374 27.233 25.2847 27.3796 23.6017 29.4973C22.9659 30.2973 21.7596 31.7905 20.4348 30.9635C20.337 30.9023 20.2447 30.8326 20.159 30.7554L21.372 26.9096C21.891 27.0363 22.4347 27.0188 22.9447 26.8594C23.4546 26.6999 23.9118 26.4043 24.2672 26.0042C24.6225 25.604 24.8629 25.1144 24.9623 24.5879C25.0617 24.0613 25.0165 23.5174 24.8317 23.0146Z" fill="white"/>
<path fill-rule="evenodd" clip-rule="evenodd" d="M20.0393 21.8287L18.682 18.4002L20.6841 17.6084L22.0587 21.0535C21.3121 21.0466 20.5907 21.3236 20.0393 21.8288" fill="white"/>
<path fill-rule="evenodd" clip-rule="evenodd" d="M16.4541 9.36134C16.5103 9.35871 16.5664 9.36754 16.619 9.38729C16.6717 9.40703 16.7199 9.4373 16.7605 9.47624C16.8011 9.51518 16.8335 9.562 16.8556 9.61385C16.8778 9.6657 16.8892 9.72152 16.8892 9.77792C16.8892 9.83432 16.8778 9.89014 16.8556 9.94199C16.8335 9.99385 16.8011 10.0407 16.7605 10.0796C16.7199 10.1185 16.6717 10.1488 16.619 10.1685C16.5664 10.1883 16.5103 10.1971 16.4541 10.1945C16.4368 10.1945 16.4195 10.1935 16.4022 10.1914L16.4733 10.0685C16.5354 10.0645 16.5947 10.0406 16.6423 10.0003C16.6898 9.95997 16.7232 9.90538 16.7375 9.84458C16.7518 9.78377 16.7462 9.71998 16.7216 9.66258C16.697 9.60519 16.6547 9.55725 16.6008 9.52584C16.547 9.49442 16.4846 9.48119 16.4227 9.4881C16.3608 9.49502 16.3028 9.52169 16.2571 9.56421C16.2115 9.60673 16.1808 9.66284 16.1693 9.72425C16.1579 9.78566 16.1665 9.84914 16.1937 9.9053L16.1227 10.0282C16.0765 9.96634 16.0484 9.89281 16.0415 9.81582C16.0346 9.73884 16.0492 9.66145 16.0836 9.59228C16.118 9.52311 16.1708 9.46488 16.2362 9.42409C16.3016 9.38332 16.3771 9.36159 16.4541 9.36134ZM17.2088 11.2215C17.4349 11.1025 17.6298 10.9317 17.7778 10.723C17.9258 10.5143 18.0227 10.2735 18.0606 10.0202C18.0986 9.76689 18.0765 9.50819 17.9962 9.26505C17.9158 9.02192 17.7795 8.80119 17.5983 8.62076C17.4171 8.44034 17.1962 8.3053 16.9532 8.22658C16.7102 8.14786 16.4523 8.12769 16.2 8.16769C15.9479 8.2077 15.7087 8.30676 15.5018 8.45684C15.2949 8.60692 15.1262 8.8038 15.0094 9.03152L15.9599 9.37421C16.0167 9.30404 16.0878 9.24678 16.1683 9.2062C16.2489 9.16563 16.3371 9.14267 16.4271 9.13884C16.5172 9.135 16.607 9.15038 16.6908 9.18397C16.7745 9.21756 16.8501 9.26858 16.9127 9.33366C16.9752 9.39875 17.0233 9.47641 17.0537 9.56154C17.0842 9.64666 17.0963 9.73728 17.0893 9.82745C17.0821 9.9176 17.0562 10.0052 17.0129 10.0845C16.9695 10.1638 16.9099 10.233 16.838 10.2875L17.2088 11.2215ZM15.7839 11.2628C15.8249 11.281 15.867 11.2991 15.9104 11.314C16.2307 11.4288 16.579 11.4393 16.9055 11.3439L16.5441 10.4108C16.5142 10.4151 16.484 10.4172 16.4538 10.4172C16.3967 10.4172 16.3399 10.4095 16.2848 10.3943L15.7839 11.2628ZM14.8937 9.32508C14.8008 9.648 14.8097 9.99181 14.9192 10.3095C15.0286 10.6271 15.2332 10.9031 15.5049 11.0997L16.0056 10.2317C15.9317 10.1581 15.877 10.0675 15.846 9.96785C15.8151 9.86818 15.8089 9.76243 15.8279 9.6598L14.8937 9.32508ZM16.4547 9.67847C16.4741 9.67843 16.4931 9.68417 16.5092 9.69498C16.5254 9.70577 16.538 9.72113 16.5455 9.73912C16.5529 9.75711 16.5549 9.77691 16.5511 9.79602C16.5474 9.81512 16.538 9.83269 16.5244 9.84648C16.5106 9.86026 16.4931 9.86966 16.4741 9.87348C16.4551 9.87728 16.4352 9.87535 16.4174 9.86791C16.3994 9.86046 16.384 9.84783 16.3732 9.83164C16.3626 9.81544 16.3567 9.7964 16.3567 9.77692C16.3569 9.75103 16.3671 9.72623 16.3855 9.70791C16.4037 9.68958 16.4283 9.6792 16.4541 9.67901L16.4547 9.67847ZM14.4746 12.8847C14.3949 12.8357 14.3048 12.8058 14.2116 12.7977C14.1183 12.7895 14.0245 12.8032 13.9375 12.8376C13.6335 12.1497 13.2673 11.318 12.9918 10.6759L14.3802 11.0411C14.5646 11.3411 14.8119 11.597 15.1051 11.791L14.4746 12.8847ZM14.7158 13.1685C14.7115 13.1579 14.7068 13.1477 14.7019 13.1373L15.3866 11.9509C15.9491 12.2241 16.5951 12.2682 17.1891 12.0737L18.0824 14.3807L14.7158 13.1685ZM18.1061 14.7333C17.6772 14.9135 17.3075 15.0669 17.1078 15.1544C15.1311 16.0209 15.3504 16.066 14.4861 14.0791C14.4716 14.0452 14.4511 13.9988 14.4258 13.9413C14.5075 13.9008 14.579 13.8422 14.6349 13.77C14.6908 13.6978 14.7297 13.6138 14.7486 13.5242L18.1061 14.7333ZM20.1781 12.8551C20.2029 12.8551 20.2271 12.8626 20.2478 12.8764C20.2683 12.8901 20.2844 12.9098 20.2939 12.9328C20.3033 12.9558 20.3058 12.981 20.301 13.0054C20.2962 13.0297 20.2843 13.0521 20.2667 13.0697C20.2492 13.0872 20.2269 13.0993 20.2026 13.1041C20.1783 13.1089 20.1531 13.1064 20.1302 13.0969C20.1073 13.0874 20.0878 13.0713 20.074 13.0506C20.0602 13.03 20.053 13.0057 20.053 12.9809C20.0531 12.9477 20.0662 12.9159 20.0896 12.8925C20.113 12.869 20.1446 12.8559 20.1777 12.8557L20.1781 12.8551ZM15.5153 14.946C15.5401 14.946 15.5643 14.9533 15.5849 14.9671C15.6055 14.981 15.6215 15.0006 15.631 15.0236C15.6405 15.0465 15.643 15.0717 15.6382 15.0961C15.6334 15.1205 15.6214 15.1429 15.6039 15.1605C15.5864 15.178 15.5641 15.19 15.5398 15.1949C15.5155 15.1997 15.4903 15.1972 15.4674 15.1877C15.4445 15.1782 15.4249 15.1621 15.4112 15.1415C15.3974 15.1207 15.39 15.0965 15.39 15.0716C15.39 15.0551 15.3933 15.0387 15.3997 15.0236C15.4059 15.0084 15.4152 14.9944 15.4268 14.9828C15.4384 14.9711 15.4522 14.9618 15.4674 14.9556C15.4826 14.9492 15.4989 14.946 15.5153 14.946ZM17.9659 6.84336C17.9906 6.84336 18.0148 6.85073 18.0354 6.86453C18.056 6.87833 18.072 6.89796 18.0815 6.92093C18.091 6.94389 18.0935 6.96915 18.0887 6.99352C18.0839 7.0179 18.0719 7.04028 18.0544 7.05786C18.0369 7.07543 18.0146 7.0874 17.9903 7.09225C17.966 7.0971 17.9409 7.09461 17.918 7.0851C17.8951 7.07559 17.8755 7.05949 17.8617 7.03882C17.848 7.01816 17.8406 6.99387 17.8406 6.96901C17.8406 6.93569 17.8538 6.90372 17.8773 6.88016C17.9008 6.8566 17.9326 6.84336 17.9659 6.84336ZM20.6465 13.5443C20.4185 13.7355 19.4298 14.1721 18.5322 14.5532L17.4975 11.9486C17.8926 11.7557 18.228 11.4585 18.4675 11.0889C18.707 10.7193 18.8419 10.2912 18.8574 9.8506C18.873 9.40997 18.7686 8.97342 18.5557 8.58776C18.3427 8.2021 18.029 7.88189 17.6485 7.66147L17.1295 6.40039C18.9279 6.43847 19.2258 7.12024 19.6145 8.48938C19.9688 9.73849 20.3746 11.1852 20.509 11.8257C20.6128 12.1339 20.6873 12.4463 20.7755 12.7609C20.8882 13.1623 20.8453 13.2693 20.6471 13.5443H20.6465Z" fill="white"/>
<path fill-rule="evenodd" clip-rule="evenodd" d="M9.0965 6.90403C9.28083 6.54737 9.58877 6.28591 9.94587 6.33886L14.7366 8.04797C14.5293 8.25227 14.3604 8.49266 14.2386 8.75747L9.0965 6.90403ZM14.0284 10.0479L9.25535 8.36129C8.90784 8.1437 8.84928 7.65795 8.97379 7.21589L14.1243 9.05483C14.0237 9.37558 13.9911 9.71382 14.0284 10.0479Z" fill="white"/>
<path fill-rule="evenodd" clip-rule="evenodd" d="M9.04084 4.25442C9.08016 4.25442 9.11859 4.26612 9.15128 4.28804C9.18397 4.30996 9.20945 4.34111 9.22449 4.37755C9.23955 4.41399 9.24348 4.45409 9.23581 4.49278C9.22813 4.53148 9.20921 4.56702 9.18141 4.59491C9.15361 4.62281 9.11818 4.6418 9.07963 4.64949C9.04107 4.65719 9.0011 4.65324 8.96476 4.63815C8.92844 4.62305 8.8974 4.59749 8.87556 4.56469C8.85372 4.53189 8.84206 4.49333 8.84206 4.45388C8.84206 4.40098 8.86299 4.35025 8.90027 4.31284C8.93756 4.27544 8.98812 4.25442 9.04084 4.25442ZM7.29096 8.81896C7.33028 8.81896 7.36871 8.83066 7.4014 8.85257C7.43409 8.8745 7.45957 8.90565 7.47462 8.94209C7.48967 8.97853 7.4936 9.01863 7.48594 9.05732C7.47827 9.09601 7.45933 9.13155 7.43153 9.15945C7.40373 9.18734 7.36831 9.20634 7.32975 9.21403C7.29119 9.22172 7.25122 9.21778 7.2149 9.20268C7.17857 9.18758 7.14752 9.16203 7.12568 9.12923C7.10384 9.09643 7.09218 9.05786 7.09218 9.01841C7.09218 8.96551 7.11312 8.91479 7.15039 8.87738C7.18768 8.83998 7.23824 8.81896 7.29096 8.81896ZM2.94166 7.81591C2.98098 7.81591 3.01941 7.8276 3.0521 7.84952C3.08479 7.87143 3.11027 7.90258 3.12532 7.93902C3.14037 7.97548 3.1443 8.01557 3.13663 8.05426C3.12897 8.09295 3.11003 8.1285 3.08223 8.15638C3.05443 8.18428 3.01901 8.20327 2.98045 8.21097C2.94189 8.21867 2.90192 8.21471 2.8656 8.19962C2.82926 8.18453 2.79822 8.15896 2.77638 8.12616C2.75454 8.09336 2.74288 8.0548 2.74288 8.01536C2.74288 7.96246 2.76382 7.91173 2.80109 7.87432C2.83838 7.83691 2.88894 7.81591 2.94166 7.81591ZM6.47376 2.81964C6.51309 2.81964 6.55152 2.83134 6.58421 2.85326C6.6169 2.87517 6.64237 2.90632 6.65742 2.94277C6.67247 2.97921 6.6764 3.01932 6.66873 3.05801C6.66107 3.0967 6.64214 3.13223 6.61433 3.16013C6.58652 3.18802 6.55111 3.20702 6.51255 3.21472C6.47398 3.22241 6.43401 3.21846 6.39769 3.20337C6.36137 3.18827 6.33033 3.1627 6.30848 3.1299C6.28663 3.0971 6.27497 3.05854 6.27497 3.01909C6.27497 2.96619 6.29592 2.91546 6.3332 2.87807C6.37049 2.84066 6.42105 2.81964 6.47376 2.81964ZM9.7525 4.36539C9.626 4.75124 9.4442 5.24588 9.23981 5.78476C8.28003 6.15085 7.96721 7.27158 8.32412 8.13485C8.13546 8.61352 8.0019 8.9526 7.86004 9.32085C7.73679 9.64161 7.68854 9.58177 6.99043 9.53517C5.51922 9.43708 4.03427 9.02095 2.69282 8.36548C2.30735 8.17709 2.28187 8.2217 2.43874 7.81409C3.61339 6.16517 4.99135 3.97792 6.22293 2.46317C6.32793 2.33408 6.45786 2.40514 6.6993 2.47749C6.95429 2.55365 7.22953 2.64539 7.48813 2.74167C8.49526 3.11738 9.38728 3.69488 9.7525 4.36539Z" fill="white"/>
<path fill-rule="evenodd" clip-rule="evenodd" d="M22.1448 23.4022C22.2975 23.4022 22.444 23.4629 22.552 23.5713C22.66 23.6797 22.7206 23.8268 22.7206 23.98C22.7206 24.1332 22.66 24.2802 22.552 24.3886C22.444 24.497 22.2975 24.5578 22.1448 24.5578C22.1307 24.5578 22.1166 24.5578 22.1026 24.5564L22.1569 24.3836C22.2493 24.3809 22.3378 24.3463 22.4079 24.2858C22.4779 24.2252 22.525 24.1424 22.5413 24.0511C22.5577 23.9598 22.5422 23.8656 22.4976 23.7845C22.453 23.7033 22.3818 23.6399 22.2962 23.605C22.2105 23.5703 22.1155 23.566 22.0272 23.5931C21.9388 23.6202 21.8624 23.677 21.8108 23.7539C21.7591 23.8308 21.7354 23.9233 21.7436 24.0156C21.7519 24.108 21.7916 24.1947 21.8559 24.2613L21.7988 24.4426C21.7022 24.3698 21.6308 24.2682 21.5948 24.1525C21.5587 24.0367 21.56 23.9125 21.5982 23.7975C21.6364 23.6824 21.7097 23.5824 21.8079 23.5115C21.9059 23.4407 22.0237 23.4025 22.1445 23.4025M22.1445 23.8517C22.1699 23.8517 22.1947 23.8593 22.2157 23.8734C22.2368 23.8876 22.2533 23.9077 22.2629 23.9311C22.2726 23.9546 22.2751 23.9805 22.2702 24.0054C22.2652 24.0303 22.253 24.0533 22.2352 24.0712C22.2172 24.0893 22.1944 24.1015 22.1695 24.1065C22.1447 24.1114 22.1189 24.1088 22.0956 24.0992C22.0721 24.0894 22.0521 24.0729 22.038 24.0518C22.0239 24.0306 22.0164 24.0057 22.0164 23.9804C22.0164 23.9634 22.0197 23.9466 22.0261 23.9309C22.0325 23.9152 22.042 23.9011 22.054 23.8891C22.0659 23.8771 22.0801 23.8676 22.0957 23.8612C22.1113 23.8547 22.128 23.8514 22.1449 23.8514L22.1445 23.8517ZM21.6313 26.05C21.9515 26.1298 22.2859 26.1338 22.6079 26.0616C22.9299 25.9895 23.2307 25.8431 23.4866 25.6341C23.7424 25.4249 23.9463 25.159 24.082 24.8572C24.2177 24.5555 24.2814 24.2262 24.2683 23.8953C24.2551 23.5645 24.1654 23.2413 24.0062 22.9514C23.8471 22.6613 23.6228 22.4126 23.3511 22.2246C23.0795 22.0367 22.7679 21.9147 22.4413 21.8685C22.1145 21.8224 21.7815 21.853 21.4686 21.9583L21.9349 23.1187C22.0619 23.0877 22.1942 23.0855 22.3222 23.1119C22.4502 23.1384 22.5708 23.193 22.6752 23.272C22.7796 23.3508 22.8653 23.4519 22.926 23.568C22.9868 23.6841 23.0211 23.8123 23.0266 23.9433C23.032 24.0743 23.0084 24.205 22.9576 24.3257C22.9066 24.4465 22.8296 24.5544 22.7321 24.6417C22.6347 24.7291 22.519 24.7936 22.3937 24.8307C22.2683 24.8678 22.1363 24.8765 22.0071 24.8564L21.6313 26.05ZM21.1463 22.0972C20.791 22.2868 20.4966 22.5737 20.2975 22.9244C20.0982 23.2753 20.0024 23.6756 20.0209 24.0789C20.0396 24.4822 20.1719 24.8719 20.4025 25.2027C20.6332 25.5337 20.9527 25.7921 21.324 25.9478L21.7023 24.7482C21.5762 24.675 21.4702 24.5718 21.3934 24.4477C21.3167 24.3234 21.2717 24.1821 21.2626 24.0362C21.2534 23.8904 21.2803 23.7445 21.3409 23.6116C21.4015 23.4787 21.4939 23.3629 21.6098 23.2744L21.1463 22.0972Z" fill="white"/>
<path fill-rule="evenodd" clip-rule="evenodd" d="M17.6508 17.3184C17.6756 17.3184 17.6998 17.3258 17.7205 17.3397C17.741 17.3535 17.757 17.3732 17.7665 17.3962C17.7759 17.4191 17.7784 17.4444 17.7734 17.4687C17.7686 17.4931 17.7566 17.5155 17.7391 17.5331C17.7215 17.5506 17.6992 17.5625 17.6749 17.5674C17.6506 17.5722 17.6255 17.5696 17.6026 17.5601C17.5797 17.5505 17.5602 17.5344 17.5464 17.5138C17.5327 17.493 17.5254 17.4687 17.5254 17.4439C17.5254 17.4274 17.5287 17.411 17.5351 17.3958C17.5413 17.3805 17.5506 17.3667 17.5622 17.3551C17.5738 17.3434 17.5877 17.3341 17.6029 17.3278C17.6181 17.3216 17.6344 17.3184 17.6508 17.3184ZM20.5909 15.986C20.6157 15.986 20.6399 15.9935 20.6605 16.0072C20.6811 16.021 20.6972 16.0407 20.7067 16.0637C20.7161 16.0866 20.7187 16.1119 20.7137 16.1362C20.7089 16.1606 20.6971 16.183 20.6794 16.2006C20.6619 16.2181 20.6396 16.2301 20.6153 16.235C20.5911 16.2398 20.5659 16.2373 20.543 16.2278C20.5201 16.2184 20.5006 16.2022 20.4869 16.1815C20.473 16.1609 20.4657 16.1366 20.4657 16.1117C20.4657 16.0952 20.4689 16.0789 20.4752 16.0637C20.4816 16.0484 20.4907 16.0346 20.5024 16.0229C20.514 16.0112 20.5279 16.0019 20.543 15.9957C20.5583 15.9893 20.5745 15.986 20.5909 15.986ZM16.641 16.3695L20.6153 14.6289C21.5008 16.4627 21.2479 16.2998 19.3641 17.1242C17.6809 17.861 17.3152 18.411 16.641 16.3695Z" fill="white"/>
<path fill-rule="evenodd" clip-rule="evenodd" d="M14.1588 13.209C14.1962 13.209 14.233 13.2201 14.2642 13.241C14.2955 13.2619 14.3198 13.2916 14.3342 13.3264C14.3485 13.3612 14.3523 13.3995 14.345 13.4364C14.3377 13.4734 14.3196 13.5073 14.2931 13.5339C14.2666 13.5605 14.2327 13.5787 14.196 13.5861C14.1591 13.5934 14.121 13.5896 14.0863 13.5753C14.0517 13.5609 14.022 13.5365 14.0012 13.5052C13.9803 13.4738 13.9691 13.4371 13.9691 13.3994C13.9691 13.3744 13.9741 13.3497 13.9836 13.3266C13.9931 13.3035 14.0071 13.2825 14.0246 13.2647C14.0422 13.247 14.0631 13.233 14.0861 13.2235C14.1091 13.2139 14.1338 13.209 14.1588 13.209Z" fill="white"/>
<path d="M14.5535 7.0328C15.1511 6.54197 16.0057 6.32728 16.7858 6.43916L17.0401 6.96589C16.9965 6.95682 16.9528 6.94873 16.9091 6.94159C16.4727 6.8725 16.026 6.91127 15.608 7.05455C15.3752 7.13709 15.1535 7.24817 14.9479 7.38528L14.5535 7.0328Z" fill="white"/>
<path d="M18.996 24.353C18.8021 23.5733 18.9805 22.6731 19.4309 21.9882L19.9894 21.9688C19.9613 22.005 19.9344 22.0425 19.9086 22.0813C19.6503 22.4615 19.4883 22.8993 19.4368 23.3566C19.411 23.612 19.4167 23.8697 19.4537 24.1237L18.996 24.353Z" fill="white"/>
<path fill-rule="evenodd" clip-rule="evenodd" d="M18.4977 14.7227C18.5642 14.7225 18.6291 14.7423 18.6843 14.7793C18.7396 14.8163 18.7826 14.8689 18.8081 14.9305C18.8335 14.992 18.8401 15.0597 18.8272 15.1251C18.8143 15.1905 18.7823 15.2505 18.7354 15.2977C18.6884 15.3448 18.6286 15.3769 18.5635 15.39C18.4983 15.4029 18.4308 15.3962 18.3695 15.3708C18.3081 15.3453 18.2556 15.3021 18.2187 15.2467C18.1818 15.1913 18.1621 15.1262 18.1621 15.0595C18.1621 15.0153 18.1708 14.9715 18.1876 14.9306C18.2045 14.8897 18.2292 14.8526 18.2604 14.8213C18.2915 14.79 18.3285 14.7652 18.3692 14.7482C18.41 14.7314 18.4537 14.7227 18.4977 14.7227Z" fill="white"/>
<path d="M31.3825 6.55556C30.521 7.30167 29.5162 7.86265 28.4303 8.20388C27.3442 8.5451 26.2001 8.65931 25.0683 8.53947C23.9366 8.41963 22.8414 8.06826 21.8503 7.50708C20.8593 6.9459 19.9934 6.18682 19.3061 5.27672L20.3226 4.50684C20.9041 5.27851 21.6372 5.92223 22.4767 6.39814C23.316 6.87406 24.2439 7.17205 25.2027 7.27365C26.1615 7.37526 27.1309 7.27833 28.0509 6.98886C28.9709 6.69938 29.8219 6.22353 30.5511 5.59077L31.3825 6.55556Z" fill="white"/>
<path d="M7.45448 17.1631C8.65707 17.4623 9.78841 17.9984 10.7828 18.7401C11.7772 19.4817 12.6147 20.4141 13.2469 21.4833C13.8792 22.5525 14.2933 23.737 14.4655 24.968C14.6375 26.1992 14.5641 27.4523 14.2494 28.6547L13.1606 27.5789C13.1758 27.488 13.1892 27.3974 13.2007 27.3068C13.4712 25.2151 12.9157 23.1002 11.6528 21.4139C10.3898 19.7277 8.51967 18.604 6.44193 18.2827L7.45448 17.1631Z" fill="white"/>
<path d="M122.311 30.7674L124.608 2.82527H132.008L136.059 14.6282L137.462 19.2393H137.539C138.058 17.3633 138.525 15.8262 138.941 14.6282L142.992 2.82527H150.392L152.652 30.7674H145.837L144.98 18.184C144.929 17.5586 144.902 16.8551 144.902 16.0737C144.902 15.2921 144.914 14.6668 144.941 14.1979L144.98 13.4925H144.902C144.279 15.4465 143.759 17.0097 143.344 18.1821L140.423 26.2702H134.581L131.66 18.1821L130.101 13.4925H130.023C130.127 15.2117 130.127 16.7749 130.023 18.1821L129.167 30.7656L122.311 30.7674ZM96.9937 16.6204C96.9937 18.9914 97.7208 20.978 99.1749 22.5803C100.629 24.1825 102.408 24.9836 104.511 24.9836C106.615 24.9836 108.393 24.1825 109.847 22.5803C111.301 20.978 112.028 18.9914 112.028 16.6204C112.028 14.354 111.301 12.4522 109.847 10.9152C108.393 9.37812 106.614 8.61008 104.511 8.61102C102.408 8.61102 100.629 9.37906 99.1749 10.9152C97.7208 12.4513 96.9937 14.3531 96.9937 16.6204ZM89.944 16.6204C89.944 12.5824 91.3267 9.19552 94.0922 6.4597C96.8576 3.72388 100.331 2.35613 104.511 2.35645C108.692 2.35645 112.165 3.7242 114.93 6.4597C117.696 9.1952 119.079 12.5822 119.079 16.6204C119.079 20.7632 117.696 24.2348 114.93 27.0353C112.165 29.8356 108.692 31.236 104.511 31.2362C100.331 31.2362 96.8576 29.8359 94.0922 27.0353C91.3267 24.2345 89.9444 20.763 89.945 16.6204H89.944ZM72.689 20.8413C72.689 22.1439 73.0327 23.2707 73.7201 24.2218C74.4075 25.1729 75.3749 25.6483 76.6221 25.648C77.7385 25.648 78.6733 25.2181 79.4266 24.3581C80.18 23.4983 80.5564 22.326 80.5561 20.8413C80.5561 19.3564 80.1925 18.1578 79.4656 17.2459C78.7385 16.3339 77.7906 15.878 76.6221 15.878C75.5057 15.878 74.5709 16.2949 73.8176 17.1288C73.0643 17.9627 72.6881 19.2001 72.689 20.8413ZM66.1454 38.5837V10.6415H72.2218V11.6586L72.1439 12.948H72.2218C73.5966 11.0984 75.6219 10.1736 78.298 10.1736C81.0245 10.1736 83.2116 11.144 84.8595 13.0848C86.5073 15.0256 87.3317 17.5724 87.3326 20.7252C87.3326 23.8776 86.4497 26.4168 84.6841 28.3429C82.9186 30.269 80.6855 31.2329 77.985 31.2348C76.0634 31.2348 74.3627 30.5966 72.8825 29.3201H72.8043C72.8614 29.8915 72.8875 30.4655 72.8825 31.0397V38.5823L66.1454 38.5837ZM37.6733 30.7674V2.82527H61.2006V30.7674H54.3828V8.64911H44.4892V30.7684L37.6733 30.7674Z" fill="white"/>
</svg>
