<svg width="14" height="14" viewBox="0 0 14 14" fill="none" xmlns="http://www.w3.org/2000/svg">
<path d="M11.774 8.758C11.268 8.25849 10.6364 8.25849 10.1336 8.758C9.75012 9.13828 9.36662 9.51855 8.98957 9.90527C8.88645 10.0116 8.79943 10.0342 8.67375 9.96328C8.4256 9.82793 8.16135 9.71836 7.92287 9.57011C6.81105 8.87079 5.8797 7.97167 5.0547 6.95975C4.64542 6.45702 4.28126 5.91883 4.02666 5.31297C3.9751 5.19051 3.98477 5.10994 4.08467 5.01004C4.46817 4.63943 4.842 4.25916 5.21905 3.87888C5.74435 3.35037 5.74435 2.73161 5.21583 2.19987C4.91612 1.89694 4.61641 1.60046 4.3167 1.29753C4.00733 0.988151 3.70118 0.675553 3.38858 0.369399C2.88262 -0.123669 2.25098 -0.123669 1.74824 0.372622C1.36152 0.752897 0.990914 1.14284 0.597749 1.51667C0.233587 1.86149 0.0498953 2.28366 0.0112233 2.77673C-0.0500073 3.57918 0.146575 4.3365 0.423725 5.07449C0.990914 6.60204 1.85459 7.95878 2.90195 9.20273C4.3167 10.885 6.00538 12.2159 7.98088 13.1763C8.87033 13.6081 9.79201 13.9401 10.7943 13.9948C11.4839 14.0335 12.0833 13.8595 12.5635 13.3213C12.8922 12.9539 13.2628 12.6188 13.6109 12.2675C14.1265 11.7454 14.1297 11.1138 13.6173 10.5981C13.005 9.98261 12.3895 9.37031 11.774 8.758Z" fill="#313131"/>
</svg>
