<svg width="20" height="20" viewBox="0 0 20 20" fill="none" xmlns="http://www.w3.org/2000/svg">
<path d="M20 10C20 15.5228 15.5228 20 10 20C4.47715 20 0 15.5228 0 10C0 4.47715 4.47715 0 10 0C15.5228 0 20 4.47715 20 10Z" fill="black"/>
<path d="M19.0164 10C19.0164 14.9796 14.9796 19.0164 10 19.0164C5.02038 19.0164 0.983607 14.9796 0.983607 10C0.983607 5.02038 5.02038 0.983607 10 0.983607C14.9796 0.983607 19.0164 5.02038 19.0164 10Z" fill="white"/>
<path d="M14.4262 10.1639C14.4262 12.5179 12.5179 14.4262 10.1639 14.4262C7.80993 14.4262 5.90164 12.5179 5.90164 10.1639C5.90164 7.80993 7.80993 5.90164 10.1639 5.90164C12.5179 5.90164 14.4262 7.80993 14.4262 10.1639Z" fill="black"/>
<path d="M12.459 10.1639C12.459 11.4315 11.4315 12.459 10.1639 12.459C8.8964 12.459 7.86885 11.4315 7.86885 10.1639C7.86885 8.8964 8.8964 7.86885 10.1639 7.86885C11.4315 7.86885 12.459 8.8964 12.459 10.1639Z" fill="white"/>
</svg>
