<svg width="298" height="547" viewBox="0 0 298 547" fill="none" xmlns="http://www.w3.org/2000/svg">
<path d="M1.33246 546.976V468.361L130.581 269.824C140.353 255.167 149.458 240.954 157.897 227.185C166.78 213.416 173.886 199.425 179.216 185.212C184.99 170.999 187.877 156.12 187.877 140.575C187.877 125.029 184.768 113.481 178.55 105.931C172.332 98.3802 163.893 94.6049 153.233 94.6049C141.241 94.6049 131.914 97.936 125.252 104.598C118.589 111.261 113.926 120.144 111.261 131.248C109.04 142.351 107.93 154.788 107.93 168.557V195.206H0V166.558C0 134.579 5.10777 106.153 15.3233 81.2802C25.5389 55.9634 41.7505 36.1986 63.9582 21.9856C86.1659 7.32854 115.258 0 151.235 0C199.647 0 236.068 12.6584 260.497 37.9752C285.369 62.8478 297.805 97.714 297.805 142.574C297.805 164.337 294.252 184.546 287.146 203.201C280.483 221.855 271.378 240.065 259.83 257.832C248.726 275.154 236.734 293.364 223.854 312.463L125.252 459.7H283.148V546.976H1.33246Z" fill="#F5F5F5"/>
</svg>
