<svg width="204" height="394" viewBox="0 0 204 394" fill="none" xmlns="http://www.w3.org/2000/svg">
<path d="M99.3983 393.77C72.3186 393.77 51.6107 388.832 37.2744 378.956C22.9381 369.08 13.062 355.222 7.64602 337.381C2.54867 319.54 0 298.673 0 274.779H71.2036C71.2036 288.797 72.0001 300.584 73.593 310.142C75.5045 319.699 78.6903 326.868 83.1505 331.646C87.9293 336.425 94.9381 338.655 104.177 338.337C113.416 338.018 120.106 334.514 124.248 327.823C128.389 321.133 130.938 311.575 131.894 299.151C132.85 286.726 133.328 272.071 133.328 255.186C133.328 241.487 132.531 229.381 130.938 218.867C129.345 208.354 126.159 200.071 121.381 194.018C116.92 187.965 109.912 184.938 100.354 184.938C91.7523 184.938 84.5841 187.965 78.8496 194.018C73.4337 200.071 69.4514 208.673 66.9027 219.823H3.82301L9.07965 0H186.85V63.5576H69.77L65.4691 149.097C69.2921 144.319 75.6638 140.177 84.5841 136.673C93.8231 133.168 103.699 131.097 114.212 130.46C134.283 128.549 150.85 132.372 163.912 141.929C177.292 151.487 187.168 165.664 193.54 184.46C199.912 202.938 203.097 225.558 203.097 252.319C203.097 272.708 201.823 291.664 199.274 309.186C196.726 326.39 191.788 341.363 184.46 354.107C177.133 366.531 166.62 376.248 152.92 383.257C139.221 390.266 121.381 393.77 99.3983 393.77Z" fill="white" fill-opacity="0.18"/>
</svg>
