<svg width="30" height="30" viewBox="0 0 30 30" fill="none" xmlns="http://www.w3.org/2000/svg">
<path d="M15.0342 0H14.9658C6.70043 0 0 6.70241 0 14.9703V15.0386C0 23.3064 6.70043 30.0088 14.9658 30.0088H15.0342C23.2996 30.0088 30 23.3064 30 15.0386V14.9703C30 6.70241 23.2996 0 15.0342 0Z" fill="#00B0F2"/>
<path d="M5.68165 14.4931C5.72369 14.472 5.76575 14.4521 5.80675 14.4331C6.51935 14.103 7.24142 13.7939 7.96244 13.4848C8.00133 13.4848 8.06648 13.4396 8.10327 13.4249C8.15897 13.4007 8.21469 13.3776 8.27039 13.3534L8.59097 13.2157C8.80538 13.1242 9.01873 13.0327 9.23314 12.9413C9.66092 12.7583 10.0887 12.5754 10.5165 12.3914C11.372 12.0255 12.2286 11.6586 13.0842 11.2927C13.9397 10.9269 14.7963 10.5599 15.6519 10.1941C16.5074 9.82819 17.364 9.46127 18.2196 9.0954C19.0751 8.72953 19.9318 8.3626 20.7873 7.99673C20.9775 7.91473 21.1835 7.79277 21.3875 7.75702C21.5588 7.72653 21.7259 7.66766 21.8982 7.63507C22.2251 7.57304 22.5856 7.5478 22.8988 7.68343C23.0071 7.73074 23.107 7.79697 23.19 7.88003C23.5873 8.27324 23.5316 8.91877 23.4475 9.47178C22.8621 13.3261 22.2766 17.1814 21.6901 21.0356C21.6103 21.5645 21.5009 22.1448 21.0837 22.4792C20.7305 22.762 20.2281 22.7935 19.7919 22.6737C19.3558 22.5527 18.9711 22.2994 18.5938 22.0502C17.0288 21.0136 15.4627 19.9769 13.8977 18.9403C13.5256 18.6943 13.1115 18.3726 13.1157 17.9257C13.1178 17.6566 13.2786 17.4169 13.4426 17.2035C14.8026 15.4288 16.7649 14.2092 18.2248 12.5165C18.4309 12.2779 18.5927 11.8468 18.31 11.7091C18.1418 11.6271 17.9484 11.7385 17.795 11.8447C15.8652 13.1852 13.9366 14.5267 12.0069 15.8672C11.3773 16.3045 10.7172 16.7545 9.95838 16.8618C9.2794 16.9585 8.59623 16.7692 7.93932 16.5758C7.38857 16.4139 6.83886 16.2478 6.29126 16.0764C6.00012 15.986 5.69952 15.8882 5.4746 15.6832C5.24967 15.4782 5.12041 15.1333 5.256 14.86C5.34113 14.6886 5.50615 14.5803 5.67957 14.492L5.68165 14.4931Z" fill="#FEFFFC"/>
</svg>
