<svg width="30" height="30" viewBox="0 0 30 30" fill="none" xmlns="http://www.w3.org/2000/svg">
<path d="M15.0342 0H14.9658C6.70044 0 0 6.70241 0 14.9702V15.0386C0 23.3064 6.70044 30.0088 14.9658 30.0088H15.0342C23.2996 30.0088 30 23.3064 30 15.0386V14.9702C30 6.70241 23.2996 0 15.0342 0Z" fill="#00E510"/>
<path d="M17.9235 19.3931C14.084 19.3931 10.9603 16.2674 10.9592 12.4268C10.9603 11.4532 11.7528 10.6616 12.7239 10.6616C12.8238 10.6616 12.9226 10.67 13.0172 10.6868C13.2253 10.7215 13.4229 10.7919 13.6047 10.8981C13.631 10.9139 13.6489 10.9391 13.6531 10.9686L14.0588 13.5265C14.064 13.557 14.0546 13.5864 14.0346 13.6085C13.8107 13.8566 13.5248 14.0354 13.2064 14.1247L13.0529 14.1678L13.1107 14.3161C13.6341 15.6492 14.6999 16.7142 16.0337 17.2399L16.1819 17.2988L16.225 17.1453C16.3143 16.8267 16.493 16.5407 16.741 16.3168C16.7589 16.3 16.7831 16.2916 16.8072 16.2916C16.8125 16.2916 16.8178 16.2916 16.8241 16.2926L19.3813 16.6984C19.4117 16.7037 19.437 16.7205 19.4527 16.7468C19.5578 16.9287 19.6283 17.1274 19.664 17.3356C19.6808 17.4281 19.6882 17.5259 19.6882 17.6278C19.6882 18.6003 18.8967 19.392 17.9235 19.3931Z" fill="#FDFDFD"/>
<path d="M24.7319 14.1616C24.5248 11.8212 23.4528 9.6502 21.7133 8.04898C19.9633 6.43831 17.693 5.55096 15.3187 5.55096C10.1076 5.55096 5.86771 9.79213 5.86771 15.0047C5.86771 16.7542 6.35013 18.4585 7.26349 19.943L5.22656 24.4533L11.7483 23.7583C12.8824 24.223 14.0827 24.4585 15.3177 24.4585C15.6424 24.4585 15.9756 24.4417 16.3098 24.407C16.6041 24.3755 16.9016 24.3292 17.1938 24.2703C21.5577 23.3883 24.7434 19.514 24.7687 15.0552V15.0047C24.7687 14.7209 24.756 14.437 24.7308 14.1616H24.7319ZM11.9995 21.7786L8.39127 22.1634L9.46859 19.7758L9.25312 19.4867C9.23736 19.4656 9.2216 19.4446 9.20373 19.4204C8.2683 18.1283 7.7743 16.6018 7.7743 15.0058C7.7743 10.8445 11.1587 7.45917 15.3187 7.45917C19.216 7.45917 22.5194 10.5007 22.8379 14.3834C22.8547 14.5916 22.8642 14.8008 22.8642 15.0069C22.8642 15.0657 22.8631 15.1236 22.8621 15.1856C22.7822 18.6666 20.3511 21.623 16.9499 22.3758C16.6903 22.4336 16.4244 22.4778 16.1595 22.5062C15.8842 22.5377 15.6014 22.5535 15.3208 22.5535C14.3213 22.5535 13.3501 22.36 12.4325 21.9773C12.3306 21.9363 12.2307 21.8922 12.1372 21.847L12.0006 21.7807L11.9995 21.7786Z" fill="#FDFDFD"/>
</svg>
