<svg width="900" height="900" viewBox="0 0 900 900" fill="none" xmlns="http://www.w3.org/2000/svg">
<path d="M450 0.5C698.252 0.5 899.5 201.748 899.5 450C899.5 698.252 698.252 899.5 450 899.5C201.748 899.5 0.5 698.252 0.5 450C0.5 201.748 201.748 0.5 450 0.5ZM649.5 450C649.5 560.181 560.181 649.5 450 649.5C339.819 649.5 250.5 560.181 250.5 450C250.5 339.819 339.819 250.5 450 250.5C560.181 250.5 649.5 339.819 649.5 450ZM549.5 450C549.5 504.952 504.952 549.5 450 549.5C395.048 549.5 350.5 504.952 350.5 450C350.5 395.048 395.048 350.5 450 350.5C504.952 350.5 549.5 395.048 549.5 450ZM550.5 450C550.5 394.495 505.505 349.5 450 349.5C394.495 349.5 349.5 394.495 349.5 450C349.5 505.505 394.495 550.5 450 550.5C505.505 550.5 550.5 505.505 550.5 450ZM650.5 450C650.5 339.267 560.733 249.5 450 249.5C339.267 249.5 249.5 339.267 249.5 450C249.5 560.733 339.267 650.5 450 650.5C560.733 650.5 650.5 560.733 650.5 450Z" stroke="white" stroke-opacity="0.2"/>
</svg>
