<svg width="36" height="33" viewBox="0 0 36 33" fill="none" xmlns="http://www.w3.org/2000/svg">
<path d="M8.17442 3.96903C8.24395 3.88583 8.3309 3.81891 8.42912 3.773C8.52735 3.72709 8.63445 3.7033 8.74288 3.70332H23.6783L24.2412 0.60827C24.2722 0.43761 24.3621 0.283244 24.4952 0.172085C24.6284 0.0609258 24.7963 2.50689e-05 24.9698 0H27.2593C27.4558 0 27.6442 0.0780339 27.7831 0.216935C27.922 0.355837 28 0.544227 28 0.740664C28 0.9371 27.922 1.12549 27.7831 1.26439C27.6442 1.40329 27.4558 1.48133 27.2593 1.48133H25.5929L23.2265 14.4698C23.1567 14.855 22.9865 15.2149 22.733 15.5132C23.0829 15.84 23.3355 16.2574 23.4627 16.719C23.5899 17.1806 23.5867 17.6684 23.4536 18.1284C23.3205 18.5883 23.0626 19.0024 22.7085 19.3247C22.3544 19.647 21.918 19.865 21.4476 19.9544C20.9772 20.0438 20.4913 20.0012 20.0436 19.8313C19.596 19.6614 19.2041 19.3708 18.9115 18.9918C18.6189 18.6128 18.437 18.1601 18.386 17.684C18.3349 17.208 18.4167 16.727 18.6223 16.2946H14.4172C14.5829 16.6415 14.6687 17.0212 14.6681 17.4056C14.6681 17.9183 14.5161 18.4195 14.2313 18.8458C13.9464 19.2721 13.5416 19.6044 13.0679 19.8006C12.5942 19.9968 12.073 20.0481 11.5701 19.9481C11.0673 19.8481 10.6053 19.6012 10.2428 19.2386C9.88027 18.8761 9.63337 18.4142 9.53335 17.9113C9.43332 17.4085 9.48466 16.8872 9.68087 16.4136C9.87707 15.9399 10.2093 15.535 10.6356 15.2502C11.0619 14.9653 11.5631 14.8133 12.0758 14.8133H21.0406C21.214 14.8132 21.382 14.7523 21.5151 14.6412C21.6483 14.53 21.7382 14.3757 21.7692 14.205L22.0627 12.5913H11.3231C10.8028 12.5912 10.299 12.4085 9.8995 12.075C9.50005 11.7415 9.23029 11.2785 9.13728 10.7665L8.01148 4.57638C7.99242 4.46939 7.99714 4.35951 8.0253 4.25455C8.05346 4.14959 8.10437 4.05211 8.17442 3.96903ZM19.8528 17.4056C19.8528 17.6253 19.9179 17.8401 20.04 18.0228C20.1621 18.2055 20.3356 18.3479 20.5386 18.432C20.7416 18.5161 20.965 18.5381 21.1805 18.4952C21.396 18.4524 21.594 18.3466 21.7493 18.1912C21.9047 18.0358 22.0105 17.8379 22.0534 17.6223C22.0963 17.4068 22.0743 17.1834 21.9902 16.9804C21.9061 16.7774 21.7637 16.6039 21.581 16.4818C21.3983 16.3598 21.1835 16.2946 20.9637 16.2946C20.6691 16.2946 20.3865 16.4117 20.1782 16.62C19.9698 16.8284 19.8528 17.1109 19.8528 17.4056ZM10.9649 17.4056C10.9649 17.6253 11.03 17.8401 11.1521 18.0228C11.2742 18.2055 11.4477 18.3479 11.6507 18.432C11.8537 18.5161 12.0771 18.5381 12.2926 18.4952C12.5081 18.4524 12.7061 18.3466 12.8614 18.1912C13.0168 18.0358 13.1226 17.8379 13.1655 17.6223C13.2084 17.4068 13.1863 17.1834 13.1023 16.9804C13.0182 16.7774 12.8758 16.6039 12.6931 16.4818C12.5104 16.3598 12.2956 16.2946 12.0758 16.2946C11.7812 16.2946 11.4986 16.4117 11.2903 16.62C11.0819 16.8284 10.9649 17.1109 10.9649 17.4056Z" fill="#313131"/>
<path d="M0.610781 31V25.24H1.19878V27.96L3.82678 25.24H4.57878L1.89478 28.02L4.79878 31H4.03078L1.19878 28.12V31H0.610781ZM7.42716 31.12C6.85382 31.12 6.36982 30.9933 5.97516 30.74C5.58049 30.484 5.28182 30.1307 5.07916 29.68C4.87649 29.2293 4.77516 28.7093 4.77516 28.12C4.77516 27.5307 4.87649 27.0107 5.07916 26.56C5.28182 26.1093 5.58049 25.7573 5.97516 25.504C6.36982 25.248 6.85382 25.12 7.42716 25.12C8.00316 25.12 8.48716 25.248 8.87916 25.504C9.27382 25.7573 9.57249 26.1093 9.77516 26.56C9.98049 27.0107 10.0832 27.5307 10.0832 28.12C10.0832 28.7093 9.98049 29.2293 9.77516 29.68C9.57249 30.1307 9.27382 30.484 8.87916 30.74C8.48716 30.9933 8.00316 31.12 7.42716 31.12ZM7.42716 30.556C7.87782 30.556 8.25382 30.4533 8.55516 30.248C8.85649 30.0427 9.08182 29.7573 9.23116 29.392C9.38316 29.024 9.45916 28.6 9.45916 28.12C9.45916 27.64 9.38316 27.2173 9.23116 26.852C9.08182 26.4867 8.85649 26.2013 8.55516 25.996C8.25382 25.7907 7.87782 25.6867 7.42716 25.684C6.97649 25.684 6.60182 25.7867 6.30316 25.992C6.00449 26.1973 5.77916 26.484 5.62716 26.852C5.47782 27.2173 5.40182 27.64 5.39916 28.12C5.39649 28.6 5.46982 29.0227 5.61916 29.388C5.77116 29.7507 5.99782 30.036 6.29916 30.244C6.60049 30.4493 6.97649 30.5533 7.42716 30.556ZM10.8842 31V25.24H13.1082C13.1642 25.24 13.2269 25.2427 13.2962 25.248C13.3682 25.2507 13.4402 25.2587 13.5122 25.272C13.8136 25.3173 14.0682 25.4227 14.2762 25.588C14.4869 25.7507 14.6456 25.956 14.7522 26.204C14.8616 26.452 14.9162 26.7267 14.9162 27.028C14.9162 27.3267 14.8616 27.6 14.7522 27.848C14.6429 28.096 14.4829 28.3027 14.2722 28.468C14.0642 28.6307 13.8109 28.7347 13.5122 28.78C13.4402 28.7907 13.3682 28.7987 13.2962 28.804C13.2269 28.8093 13.1642 28.812 13.1082 28.812H11.4722V31H10.8842ZM11.4722 28.252H13.0922C13.1402 28.252 13.1962 28.2493 13.2602 28.244C13.3242 28.2387 13.3869 28.2293 13.4482 28.216C13.6456 28.1733 13.8069 28.092 13.9322 27.972C14.0602 27.852 14.1549 27.7093 14.2162 27.544C14.2802 27.3787 14.3122 27.2067 14.3122 27.028C14.3122 26.8493 14.2802 26.6773 14.2162 26.512C14.1549 26.344 14.0602 26.2 13.9322 26.08C13.8069 25.96 13.6456 25.8787 13.4482 25.836C13.3869 25.8227 13.3242 25.8147 13.2602 25.812C13.1962 25.8067 13.1402 25.804 13.0922 25.804H11.4722V28.252ZM17.5563 31.12C17.1643 31.12 16.8243 31.0627 16.5363 30.948C16.251 30.8333 16.0163 30.6827 15.8323 30.496C15.6483 30.3067 15.511 30.1027 15.4203 29.884L15.9563 29.572C16.0203 29.7533 16.1217 29.9187 16.2603 30.068C16.399 30.2173 16.5777 30.336 16.7963 30.424C17.015 30.512 17.275 30.556 17.5763 30.556C17.8883 30.556 18.1523 30.5067 18.3683 30.408C18.587 30.3093 18.7523 30.1707 18.8643 29.992C18.9763 29.8133 19.0323 29.6053 19.0323 29.368C19.0323 29.1067 18.9697 28.904 18.8443 28.76C18.719 28.616 18.551 28.5147 18.3403 28.456C18.1297 28.3947 17.895 28.36 17.6363 28.352C17.4417 28.344 17.303 28.3387 17.2203 28.336C17.1377 28.3333 17.083 28.332 17.0563 28.332C17.0297 28.332 17.0043 28.332 16.9803 28.332V27.764C16.999 27.764 17.0483 27.764 17.1283 27.764C17.2083 27.764 17.2937 27.764 17.3843 27.764C17.475 27.7613 17.547 27.7587 17.6003 27.756C17.9817 27.7373 18.2817 27.6373 18.5003 27.456C18.719 27.2747 18.8283 27.0293 18.8283 26.72C18.8283 26.392 18.7123 26.1373 18.4803 25.956C18.251 25.7747 17.9537 25.684 17.5883 25.684C17.2443 25.684 16.9537 25.7667 16.7163 25.932C16.4817 26.0947 16.2897 26.3133 16.1403 26.588L15.6603 26.232C15.8417 25.9067 16.0977 25.64 16.4283 25.432C16.759 25.224 17.151 25.12 17.6043 25.12C17.847 25.12 18.079 25.1533 18.3003 25.22C18.5243 25.2867 18.7217 25.3853 18.8923 25.516C19.0657 25.6467 19.2017 25.812 19.3003 26.012C19.4017 26.2093 19.4523 26.4413 19.4523 26.708C19.4523 27.02 19.383 27.292 19.2443 27.524C19.1083 27.756 18.9323 27.9307 18.7163 28.048C19.0097 28.136 19.239 28.2907 19.4043 28.512C19.5723 28.7333 19.6563 29.0227 19.6563 29.38C19.6563 29.732 19.5697 30.0387 19.3963 30.3C19.223 30.5613 18.9777 30.764 18.6603 30.908C18.3457 31.0493 17.9777 31.12 17.5563 31.12ZM24.8418 31H24.2498V26.276L21.0778 31H20.4858V25.24H21.0778V29.96L24.2498 25.24H24.8418V31ZM25.9623 31V25.24H26.5503V27.836H29.7343V25.24H30.3183V31H29.7343V28.4H26.5503V31H25.9623ZM31.0389 31L33.0229 25.24H33.8029L35.7869 31H35.1749L33.2909 25.568H33.5229L31.6509 31H31.0389ZM31.9229 29.604V29.052H34.8989V29.604H31.9229Z" fill="black"/>
</svg>
