<svg width="110" height="29" viewBox="0 0 110 29" fill="none" xmlns="http://www.w3.org/2000/svg">
<path d="M3.01733 15.996V6.98825C3.39016 7.20179 3.79043 7.38377 4.12465 7.43802V14.8509L3.01733 15.996ZM13.3637 21.6856H3.01733V17.8238L4.12465 16.6793V20.5782H12.6132C12.7518 21.0217 12.9821 21.3936 13.3637 21.6853V21.6856ZM23.0357 18.0737V21.6853L16.9863 21.6566C17.3358 21.1249 17.8809 20.7544 18.3852 20.571H21.9289V18.7938C22.4138 18.6661 22.8689 18.3011 23.0357 18.0737ZM14.0197 1.6665H23.0357V14.42C22.7081 14.2319 22.3504 14.1435 21.9284 14.1681V2.77343H14.3224L14.0197 1.6665ZM6.52986 1.6665H12.7275L13.0302 2.77369H8.00782C7.63153 2.31084 7.25473 2.05075 6.52986 1.6665Z" fill="#313131"/>
<path fill-rule="evenodd" clip-rule="evenodd" d="M14.1266 21.561C13.447 20.6947 13.5941 19.0629 14.1149 18.4111C14.343 18.6616 14.6287 18.8526 14.9473 18.9677L14.1266 21.561ZM15.1078 21.4199C15.1254 21.4199 15.1426 21.4252 15.1571 21.4349C15.1718 21.4447 15.1832 21.4586 15.1899 21.4749C15.1966 21.4911 15.1984 21.509 15.195 21.5263C15.1915 21.5434 15.1831 21.5594 15.1706 21.5718C15.1581 21.5842 15.1423 21.5926 15.1251 21.596C15.1078 21.5994 15.0899 21.5977 15.0737 21.5909C15.0575 21.5842 15.0436 21.5728 15.0338 21.5581C15.0241 21.5435 15.0189 21.5263 15.0189 21.5087C15.0189 21.497 15.0212 21.4855 15.0256 21.4747C15.0301 21.4639 15.0367 21.4542 15.045 21.4459C15.0532 21.4377 15.063 21.4311 15.0738 21.4267C15.0846 21.4223 15.0961 21.4199 15.1078 21.4199ZM23.2461 15.8539C23.2636 15.8539 23.2808 15.8591 23.2954 15.8689C23.3101 15.8787 23.3214 15.8925 23.3281 15.9088C23.3349 15.925 23.3366 15.9429 23.3332 15.9601C23.3298 15.9774 23.3213 15.9932 23.3089 16.0056C23.2965 16.018 23.2806 16.0265 23.2634 16.0299C23.2461 16.0334 23.2283 16.0316 23.2121 16.0249C23.1958 16.0182 23.1819 16.0068 23.1721 15.9922C23.1624 15.9775 23.1571 15.9604 23.1571 15.9428C23.1572 15.9193 23.1666 15.8967 23.1832 15.88C23.1999 15.8634 23.2225 15.854 23.2461 15.854V15.8539ZM17.6226 16.2785C18.8373 15.8297 20.0824 16.0971 21.3431 15.7474C21.7468 15.6355 22.3871 15.2694 22.7167 15.2558C23.4152 15.2266 24.0852 15.9169 23.8033 16.533C23.7153 16.7254 23.5126 16.8744 23.3171 17.0299C22.4951 17.6834 21.4761 18.2227 20.5321 18.5754C18.6911 19.2623 17.9441 19.3659 16.7496 20.8639C16.2985 21.4297 15.4424 22.4859 14.5022 21.9009C14.4328 21.8576 14.3673 21.8084 14.3065 21.7537L15.1673 19.0335C15.5356 19.1231 15.9215 19.1108 16.2834 18.998C16.6453 18.8852 16.9697 18.6761 17.222 18.3931C17.4741 18.11 17.6447 17.7638 17.7152 17.3914C17.7858 17.0189 17.7537 16.6342 17.6226 16.2785Z" fill="#313131"/>
<path fill-rule="evenodd" clip-rule="evenodd" d="M14.2216 15.4397L13.2583 13.0147L14.6791 12.4546L15.6546 14.8913C15.1248 14.8865 14.6128 15.0824 14.2216 15.4398" fill="#313131"/>
<path fill-rule="evenodd" clip-rule="evenodd" d="M11.6771 6.62119C11.717 6.61932 11.7568 6.62557 11.7941 6.63954C11.8316 6.65351 11.8657 6.67491 11.8946 6.70246C11.9234 6.73 11.9464 6.76311 11.9621 6.79979C11.9778 6.83646 11.9859 6.87595 11.9859 6.91584C11.9859 6.95573 11.9778 6.99521 11.9621 7.03189C11.9464 7.06857 11.9234 7.10168 11.8946 7.12922C11.8657 7.15677 11.8316 7.17817 11.7941 7.19214C11.7568 7.20611 11.717 7.21236 11.6771 7.2105C11.6648 7.21048 11.6526 7.20976 11.6403 7.20831L11.6907 7.12136C11.7348 7.11855 11.7769 7.10164 11.8106 7.07312C11.8444 7.04461 11.8681 7.006 11.8782 6.96299C11.8884 6.91998 11.8844 6.87486 11.867 6.83426C11.8495 6.79366 11.8195 6.75976 11.7812 6.73754C11.7431 6.71531 11.6987 6.70596 11.6548 6.71085C11.6109 6.71574 11.5697 6.73461 11.5373 6.76468C11.505 6.79476 11.4831 6.83444 11.475 6.87788C11.4669 6.92131 11.473 6.96621 11.4923 7.00594L11.4419 7.09289C11.4091 7.04911 11.3892 6.99711 11.3843 6.94265C11.3794 6.8882 11.3897 6.83346 11.4141 6.78453C11.4386 6.73561 11.4761 6.69442 11.5225 6.66557C11.5689 6.63673 11.6225 6.62136 11.6771 6.62119ZM12.2127 7.9369C12.3731 7.85272 12.5115 7.73192 12.6165 7.58429C12.7216 7.43666 12.7903 7.26636 12.8172 7.08721C12.8441 6.90804 12.8285 6.72506 12.7715 6.55308C12.7145 6.38111 12.6177 6.22498 12.4891 6.09736C12.3606 5.96975 12.2037 5.87423 12.0313 5.81855C11.8589 5.76287 11.6758 5.74861 11.4968 5.7769C11.3179 5.8052 11.1481 5.87526 11.0013 5.98141C10.8545 6.08757 10.7347 6.22683 10.6518 6.3879L11.3264 6.63029C11.3667 6.58066 11.4171 6.54016 11.4743 6.51146C11.5315 6.48276 11.5941 6.46651 11.658 6.46381C11.7219 6.46109 11.7856 6.47197 11.8451 6.49573C11.9045 6.51949 11.9581 6.55557 12.0026 6.60161C12.0469 6.64765 12.0811 6.70258 12.1026 6.76279C12.1243 6.823 12.1329 6.8871 12.1279 6.95087C12.1228 7.01464 12.1044 7.07662 12.0736 7.13271C12.0429 7.18881 12.0006 7.23775 11.9496 7.27629L12.2127 7.9369ZM11.2015 7.96615C11.2306 7.97897 11.2605 7.9918 11.2912 8.00231C11.5186 8.08353 11.7657 8.09094 11.9975 8.02347L11.741 7.3635C11.7197 7.3665 11.6983 7.368 11.6769 7.36799C11.6364 7.36801 11.5961 7.36257 11.557 7.35183L11.2015 7.96615ZM10.5697 6.59554C10.5038 6.82395 10.5101 7.06713 10.5878 7.29181C10.6655 7.51649 10.8106 7.7117 11.0035 7.85072L11.3588 7.23679C11.3064 7.18475 11.2676 7.12069 11.2456 7.05018C11.2236 6.97968 11.2192 6.90488 11.2327 6.83229L10.5697 6.59554ZM11.6776 6.8455C11.6913 6.84547 11.7048 6.84953 11.7162 6.85717C11.7277 6.86481 11.7366 6.87567 11.742 6.8884C11.7472 6.90112 11.7486 6.91512 11.746 6.92864C11.7433 6.94216 11.7366 6.95458 11.727 6.96433C11.7172 6.97408 11.7048 6.98073 11.6913 6.98343C11.6778 6.98612 11.6637 6.98476 11.6511 6.97949C11.6383 6.97422 11.6274 6.96529 11.6197 6.95384C11.6121 6.94238 11.608 6.92891 11.608 6.91513C11.6081 6.89682 11.6154 6.87928 11.6284 6.86632C11.6413 6.85336 11.6588 6.84601 11.6771 6.84588L11.6776 6.8455ZM10.2723 9.11333C10.2157 9.07866 10.1518 9.0575 10.0856 9.05175C10.0195 9.046 9.95289 9.05566 9.89114 9.08C9.67539 8.59341 9.41547 8.00513 9.21997 7.551L10.2053 7.8093C10.3361 8.02149 10.5116 8.20253 10.7197 8.33975L10.2723 9.11333ZM10.4435 9.31408C10.4404 9.30658 10.4371 9.29933 10.4336 9.292L10.9196 8.45283C11.3187 8.64608 11.7771 8.67725 12.1987 8.53966L12.8326 10.1715L10.4435 9.31408ZM12.8495 10.4208C12.5451 10.5483 12.2827 10.6568 12.1411 10.7187C10.7382 11.3316 10.8938 11.3635 10.2805 9.95816C10.2701 9.93416 10.2556 9.90133 10.2376 9.86066C10.2956 9.832 10.3464 9.79058 10.3861 9.7395C10.4257 9.68841 10.4533 9.629 10.4667 9.56566L12.8495 10.4208ZM14.32 9.09241C14.3376 9.09241 14.3547 9.09766 14.3694 9.10741C14.384 9.11716 14.3954 9.13108 14.4021 9.14733C14.4088 9.16358 14.4106 9.18141 14.4071 9.19866C14.4037 9.21591 14.3953 9.23175 14.3828 9.24416C14.3704 9.25658 14.3546 9.26508 14.3373 9.2685C14.3201 9.27191 14.3022 9.27016 14.286 9.26341C14.2697 9.25666 14.2559 9.24533 14.2461 9.23066C14.2363 9.21608 14.2311 9.19891 14.2311 9.18133C14.2312 9.15791 14.2406 9.13541 14.2571 9.11883C14.2737 9.10225 14.2961 9.09291 14.3196 9.09283L14.32 9.09241ZM11.0109 10.5713C11.0285 10.5713 11.0456 10.5765 11.0602 10.5862C11.0749 10.5961 11.0862 10.6099 11.093 10.6262C11.0997 10.6424 11.1015 10.6602 11.0981 10.6775C11.0946 10.6947 11.0861 10.7106 11.0737 10.723C11.0613 10.7354 11.0455 10.7439 11.0282 10.7473C11.011 10.7507 10.9931 10.749 10.9769 10.7422C10.9606 10.7356 10.9467 10.7242 10.937 10.7096C10.9272 10.6949 10.922 10.6777 10.922 10.6602C10.922 10.6485 10.9243 10.6369 10.9288 10.6262C10.9332 10.6154 10.9398 10.6056 10.9481 10.5973C10.9563 10.5891 10.9661 10.5825 10.9769 10.5781C10.9876 10.5736 10.9992 10.5713 11.0109 10.5713ZM12.75 4.84017C12.7676 4.84017 12.7847 4.84539 12.7993 4.85515C12.814 4.86491 12.8253 4.8788 12.8321 4.89504C12.8388 4.91128 12.8406 4.92915 12.8371 4.94639C12.8337 4.96363 12.8252 4.97946 12.8128 4.9919C12.8004 5.00432 12.7846 5.01279 12.7673 5.01622C12.7501 5.01965 12.7322 5.01789 12.716 5.01116C12.6997 5.00444 12.6858 4.99305 12.6761 4.97843C12.6663 4.96381 12.6611 4.94663 12.6611 4.92905C12.6611 4.90548 12.6705 4.88287 12.6871 4.86621C12.7038 4.84954 12.7264 4.84017 12.75 4.84017ZM14.6524 9.57983C14.4906 9.71508 13.7889 10.0239 13.1519 10.2935L12.4176 8.45116C12.698 8.31475 12.936 8.10454 13.106 7.84311C13.276 7.58168 13.3716 7.27891 13.3826 6.96725C13.3937 6.65558 13.3196 6.34681 13.1686 6.07402C13.0174 5.80124 12.7948 5.57475 12.5247 5.41884L12.1564 4.52686C13.4327 4.55379 13.6441 5.03601 13.92 6.00443C14.1714 6.88795 14.4594 7.91126 14.5548 8.36425C14.6285 8.58225 14.6813 8.80325 14.7439 9.02575C14.8239 9.30966 14.7935 9.38533 14.6528 9.57983H14.6524Z" fill="#313131"/>
<path fill-rule="evenodd" clip-rule="evenodd" d="M6.4555 4.8831C6.58631 4.63083 6.80485 4.44589 7.05827 4.48334L10.4582 5.69223C10.311 5.83673 10.1912 6.00677 10.1047 6.19407L6.4555 4.8831ZM9.95558 7.10683L6.56823 5.91384C6.32161 5.75994 6.28005 5.41636 6.36841 5.10368L10.0236 6.4044C9.95225 6.63127 9.92908 6.87051 9.95558 7.10683Z" fill="#313131"/>
<path fill-rule="evenodd" clip-rule="evenodd" d="M6.41616 3.00901C6.44406 3.00901 6.47134 3.01728 6.49454 3.03279C6.51774 3.04829 6.53582 3.07033 6.5465 3.0961C6.55718 3.12188 6.55997 3.15024 6.55453 3.17761C6.54908 3.20498 6.53565 3.23012 6.51592 3.24984C6.49619 3.26958 6.47105 3.28301 6.44369 3.28845C6.41632 3.29389 6.38796 3.2911 6.36217 3.28043C6.3364 3.26975 6.31436 3.25167 6.29886 3.22847C6.28336 3.20527 6.27509 3.17799 6.27509 3.15009C6.27509 3.11268 6.28995 3.07679 6.31641 3.05033C6.34286 3.02388 6.37875 3.00901 6.41616 3.00901ZM5.17431 6.23758C5.20221 6.23758 5.22949 6.24586 5.25269 6.26136C5.27589 6.27687 5.29397 6.2989 5.30465 6.32468C5.31533 6.35045 5.31812 6.37882 5.31268 6.40618C5.30724 6.43355 5.2938 6.45868 5.27407 6.47842C5.25434 6.49815 5.22921 6.51158 5.20184 6.51703C5.17447 6.52247 5.14611 6.51968 5.12033 6.509C5.09455 6.49832 5.07251 6.48024 5.05701 6.45704C5.04151 6.43384 5.03324 6.40657 5.03324 6.37866C5.03324 6.34124 5.04811 6.30537 5.07456 6.27891C5.10101 6.25245 5.1369 6.23758 5.17431 6.23758ZM2.08771 5.52811C2.11561 5.52811 2.14289 5.53638 2.16609 5.55188C2.18929 5.56738 2.20737 5.58942 2.21805 5.61519C2.22873 5.64098 2.23152 5.66933 2.22608 5.6967C2.22064 5.72407 2.2072 5.74921 2.18747 5.76893C2.16774 5.78867 2.14261 5.8021 2.11524 5.80754C2.08787 5.81299 2.05951 5.81019 2.03373 5.79952C2.00795 5.78884 1.98591 5.77076 1.97041 5.74756C1.95491 5.72436 1.94664 5.69708 1.94664 5.66918C1.94664 5.63177 1.96151 5.59588 1.98796 5.56943C2.01441 5.54297 2.0503 5.52811 2.08771 5.52811ZM4.59436 1.99417C4.62227 1.99417 4.64955 2.00244 4.67275 2.01794C4.69595 2.03344 4.71402 2.05548 4.72471 2.08126C4.73538 2.10703 4.73817 2.1354 4.73273 2.16277C4.72729 2.19013 4.71386 2.21527 4.69412 2.235C4.67439 2.25473 4.64926 2.26817 4.62189 2.27361C4.59452 2.27905 4.56616 2.27626 4.54038 2.26558C4.51461 2.2549 4.49257 2.23682 4.47706 2.21362C4.46156 2.19042 4.45329 2.16314 4.45329 2.13524C4.45329 2.09783 4.46816 2.06194 4.49461 2.03549C4.52107 2.00903 4.55696 1.99417 4.59436 1.99417ZM6.92121 3.0875C6.83144 3.36042 6.70241 3.71028 6.55736 4.09144C5.87623 4.35038 5.65423 5.1431 5.90752 5.7537C5.77363 6.09228 5.67885 6.33211 5.57817 6.59259C5.49071 6.81946 5.45646 6.77713 4.96103 6.74418C3.91695 6.67479 2.86311 6.38046 1.91111 5.91683C1.63756 5.78358 1.61947 5.81513 1.7308 5.52683C2.56442 4.36052 3.54233 2.81343 4.41636 1.74203C4.49087 1.65072 4.58308 1.70098 4.75442 1.75216C4.93538 1.80603 5.13071 1.87092 5.31424 1.93902C6.02897 2.20476 6.66202 2.61323 6.92121 3.0875Z" fill="#313131"/>
<path fill-rule="evenodd" clip-rule="evenodd" d="M15.7156 16.5526C15.8241 16.5526 15.928 16.5956 16.0046 16.6723C16.0813 16.749 16.1243 16.853 16.1243 16.9614C16.1243 17.0697 16.0813 17.1737 16.0046 17.2504C15.928 17.3271 15.8241 17.3701 15.7156 17.3701C15.7056 17.3701 15.6956 17.3701 15.6857 17.3691L15.7242 17.2468C15.7898 17.2449 15.8526 17.2205 15.9024 17.1776C15.9521 17.1348 15.9855 17.0762 15.9971 17.0116C16.0087 16.9471 15.9977 16.8805 15.9661 16.8231C15.9344 16.7656 15.8839 16.7208 15.8231 16.6961C15.7623 16.6716 15.6949 16.6686 15.6322 16.6877C15.5695 16.7069 15.5152 16.7471 15.4786 16.8015C15.442 16.8558 15.4251 16.9212 15.431 16.9866C15.4368 17.0519 15.465 17.1132 15.5106 17.1603L15.4701 17.2886C15.4016 17.2371 15.3509 17.1652 15.3253 17.0834C15.2997 17.0015 15.3006 16.9136 15.3277 16.8323C15.3549 16.7509 15.4069 16.6801 15.4766 16.63C15.5461 16.5799 15.6297 16.5529 15.7155 16.5529M15.7155 16.8706C15.7335 16.8706 15.7511 16.876 15.766 16.886C15.781 16.896 15.7926 16.9102 15.7995 16.9268C15.8064 16.9434 15.8081 16.9617 15.8046 16.9793C15.8011 16.997 15.7925 17.0132 15.7798 17.0259C15.7671 17.0386 15.7509 17.0473 15.7332 17.0508C15.7156 17.0543 15.6973 17.0525 15.6807 17.0456C15.6641 17.0387 15.6499 17.0271 15.6399 17.0121C15.6299 16.9971 15.6246 16.9796 15.6246 16.9616C15.6246 16.9496 15.6269 16.9377 15.6314 16.9266C15.636 16.9156 15.6427 16.9056 15.6512 16.8971C15.6596 16.8886 15.6697 16.8819 15.6808 16.8773C15.6919 16.8727 15.7037 16.8704 15.7157 16.8704L15.7155 16.8706ZM15.3512 18.4255C15.5785 18.482 15.8158 18.4848 16.0443 18.4337C16.2728 18.3827 16.4863 18.2791 16.6679 18.1313C16.8495 17.9834 16.9941 17.7953 17.0905 17.5818C17.1867 17.3684 17.232 17.1355 17.2226 16.9015C17.2133 16.6675 17.1496 16.4389 17.0366 16.2338C16.9237 16.0286 16.7646 15.8527 16.5717 15.7197C16.379 15.5868 16.1579 15.5006 15.9261 15.4679C15.6941 15.4352 15.4578 15.4569 15.2358 15.5314L15.5667 16.3521C15.6568 16.3302 15.7507 16.3286 15.8416 16.3473C15.9324 16.3661 16.018 16.4047 16.0921 16.4606C16.1661 16.5163 16.227 16.5878 16.2701 16.67C16.3132 16.7521 16.3376 16.8427 16.3415 16.9354C16.3453 17.0281 16.3286 17.1205 16.2925 17.2059C16.2563 17.2913 16.2016 17.3676 16.1325 17.4294C16.0633 17.4912 15.9812 17.5368 15.8923 17.5631C15.8033 17.5893 15.7096 17.5955 15.618 17.5812L15.3512 18.4255ZM15.0071 15.6296C14.7549 15.7637 14.546 15.9666 14.4046 16.2147C14.2632 16.4629 14.1952 16.7461 14.2084 17.0313C14.2216 17.3166 14.3156 17.5922 14.4792 17.8262C14.6429 18.0603 14.8696 18.2431 15.1331 18.3532L15.4016 17.5047C15.3121 17.453 15.2369 17.38 15.1824 17.2921C15.128 17.2042 15.0961 17.1043 15.0896 17.0011C15.0831 16.898 15.1021 16.7948 15.1451 16.7008C15.1881 16.6068 15.2537 16.5249 15.336 16.4623L15.0071 15.6296Z" fill="#313131"/>
<path fill-rule="evenodd" clip-rule="evenodd" d="M12.5265 12.2495C12.5441 12.2495 12.5612 12.2548 12.5759 12.2646C12.5905 12.2743 12.6018 12.2883 12.6086 12.3045C12.6152 12.3208 12.617 12.3386 12.6135 12.3558C12.6101 12.3731 12.6016 12.3889 12.5891 12.4013C12.5766 12.4138 12.5608 12.4222 12.5436 12.4256C12.5263 12.429 12.5085 12.4272 12.4922 12.4204C12.476 12.4137 12.4621 12.4023 12.4524 12.3877C12.4426 12.373 12.4375 12.3558 12.4375 12.3383C12.4375 12.3266 12.4398 12.315 12.4443 12.3043C12.4487 12.2934 12.4553 12.2837 12.4636 12.2754C12.4718 12.2672 12.4816 12.2606 12.4925 12.2562C12.5032 12.2518 12.5148 12.2495 12.5265 12.2495ZM14.613 11.3071C14.6306 11.3071 14.6477 11.3123 14.6624 11.3221C14.677 11.3318 14.6884 11.3458 14.6951 11.362C14.7018 11.3783 14.7036 11.3961 14.7001 11.4133C14.6967 11.4306 14.6883 11.4464 14.6758 11.4588C14.6634 11.4713 14.6476 11.4798 14.6303 11.4832C14.6131 11.4866 14.5952 11.4848 14.579 11.4781C14.5627 11.4714 14.5489 11.46 14.5391 11.4453C14.5293 11.4308 14.5241 11.4136 14.5241 11.396C14.5241 11.3843 14.5264 11.3728 14.5309 11.362C14.5354 11.3512 14.5419 11.3414 14.5501 11.3332C14.5584 11.3249 14.5682 11.3183 14.579 11.3139C14.5898 11.3094 14.6013 11.3071 14.613 11.3071ZM11.8098 11.5783L14.6303 10.3472C15.2587 11.6443 15.0792 11.529 13.7423 12.1122C12.5478 12.6333 12.2883 13.0223 11.8098 11.5783Z" fill="#313131"/>
<path fill-rule="evenodd" clip-rule="evenodd" d="M10.0482 9.34326C10.0747 9.34326 10.1008 9.3511 10.123 9.36593C10.1452 9.38068 10.1624 9.40168 10.1727 9.42635C10.1828 9.45093 10.1855 9.47801 10.1803 9.5041C10.1752 9.53026 10.1623 9.55426 10.1435 9.5731C10.1247 9.59193 10.1007 9.60476 10.0746 9.61001C10.0484 9.61518 10.0213 9.61251 9.99674 9.60235C9.97216 9.59218 9.95107 9.57493 9.93632 9.55276C9.92149 9.5306 9.91357 9.5046 9.91357 9.47793C9.91357 9.46026 9.91707 9.44276 9.92382 9.42643C9.93057 9.4101 9.94049 9.39526 9.95291 9.38268C9.96541 9.37018 9.98024 9.36026 9.99657 9.35351C10.0129 9.34676 10.0304 9.34326 10.0482 9.34326Z" fill="#313131"/>
<path d="M10.3284 4.97459C10.7525 4.62741 11.359 4.47556 11.9126 4.5547L12.093 4.92726C12.0621 4.92085 12.0311 4.91512 12.0001 4.91007C11.6904 4.8612 11.3734 4.88863 11.0767 4.98997C10.9115 5.04835 10.7542 5.12692 10.6083 5.2239L10.3284 4.97459Z" fill="#313131"/>
<path d="M13.4811 17.2255C13.3435 16.674 13.4701 16.0372 13.7898 15.5528L14.1861 15.5391C14.1662 15.5647 14.1471 15.5912 14.1288 15.6186C13.9454 15.8876 13.8305 16.1972 13.7939 16.5207C13.7756 16.7014 13.7797 16.8836 13.8059 17.0633L13.4811 17.2255Z" fill="#313131"/>
<path fill-rule="evenodd" clip-rule="evenodd" d="M13.1273 10.4136C13.1745 10.4135 13.2206 10.4275 13.2597 10.4537C13.299 10.4798 13.3295 10.517 13.3476 10.5606C13.3657 10.6041 13.3703 10.652 13.3612 10.6982C13.352 10.7445 13.3293 10.7869 13.296 10.8203C13.2627 10.8537 13.2202 10.8763 13.174 10.8856C13.1277 10.8947 13.0798 10.89 13.0363 10.872C12.9927 10.854 12.9555 10.8234 12.9293 10.7842C12.9032 10.7451 12.8892 10.699 12.8892 10.6518C12.8892 10.6206 12.8953 10.5896 12.9072 10.5607C12.9192 10.5317 12.9367 10.5055 12.9589 10.4833C12.981 10.4612 13.0072 10.4437 13.0362 10.4317C13.0651 10.4197 13.0961 10.4136 13.1273 10.4136Z" fill="#313131"/>
<path d="M22.2715 4.63709C21.6602 5.16482 20.9471 5.56161 20.1764 5.80297C19.4057 6.04432 18.5937 6.1251 17.7905 6.04034C16.9873 5.95557 16.2101 5.70705 15.5068 5.31011C14.8034 4.91318 14.1889 4.37627 13.7012 3.73254L14.4226 3.18799C14.8353 3.7338 15.3555 4.18912 15.9513 4.52574C16.5469 4.86236 17.2054 5.07314 17.8858 5.14501C18.5663 5.21687 19.2543 5.14831 19.9072 4.94356C20.5601 4.73881 21.164 4.40224 21.6815 3.95467L22.2715 4.63709Z" fill="#313131"/>
<path d="M5.29036 12.1396C6.14381 12.3513 6.94669 12.7305 7.65239 13.2551C8.35806 13.7796 8.95248 14.4391 9.40114 15.1954C9.84981 15.9516 10.1437 16.7895 10.2659 17.6602C10.388 18.5311 10.3359 19.4174 10.1126 20.2679L9.33989 19.5069C9.35064 19.4426 9.36014 19.3786 9.36831 19.3145C9.56031 17.835 9.16606 16.3391 8.26978 15.1463C7.3735 13.9536 6.0463 13.1588 4.57178 12.9316L5.29036 12.1396Z" fill="#313131"/>
<path d="M86.8016 21.7621L88.4316 1.99811H93.6833L96.5583 10.3465L97.5533 13.608H97.6083C97.9766 12.2811 98.3083 11.1939 98.6033 10.3465L101.478 1.99811H106.73L108.333 21.7621H103.497L102.889 12.8616C102.852 12.4193 102.833 11.9217 102.833 11.3689C102.833 10.8161 102.842 10.3738 102.862 10.0422L102.889 9.54325H102.833C102.392 10.9253 102.022 12.031 101.728 12.8603L99.6549 18.5811H95.5091L93.4358 12.8603L92.3299 9.54325H92.2741C92.3483 10.7593 92.3483 11.8649 92.2741 12.8603L91.6666 21.7608L86.8016 21.7621ZM68.8342 11.7557C68.8342 13.4327 69.3502 14.8378 70.3821 15.9712C71.4141 17.1044 72.6764 17.6711 74.1692 17.6711C75.6618 17.6711 76.9241 17.1044 77.9558 15.9712C78.9876 14.8378 79.5036 13.4327 79.5038 11.7557C79.5038 10.1526 78.9878 8.80742 77.9558 7.72023C76.9239 6.63305 75.6617 6.0898 74.1692 6.09047C72.6764 6.09047 71.4141 6.63372 70.3821 7.72023C69.3502 8.80675 68.8342 10.1519 68.8342 11.7557ZM63.8312 11.7557C63.8312 8.8995 64.8124 6.5039 66.775 4.5688C68.7376 2.63371 71.2023 1.66628 74.1692 1.6665C77.136 1.6665 79.6007 2.63394 81.5633 4.5688C83.5258 6.50367 84.5074 8.89934 84.5074 11.7557C84.5074 14.6859 83.5258 17.1414 81.5633 19.1223C79.6007 21.103 77.136 22.0935 74.1692 22.0937C71.2023 22.0937 68.7376 21.1032 66.775 19.1223C64.8124 17.1413 63.8314 14.6858 63.8318 11.7557H63.8312ZM51.5857 14.7412C51.5857 15.6625 51.8296 16.4595 52.3174 17.1323C52.8053 17.805 53.4918 18.1413 54.3769 18.141C55.1692 18.141 55.8326 17.8369 56.3672 17.2287C56.9018 16.6205 57.169 15.7913 57.1688 14.7412C57.1688 13.6908 56.9108 12.8431 56.3948 12.1981C55.8788 11.553 55.2062 11.2305 54.3769 11.2305C53.5846 11.2305 52.9212 11.5254 52.3866 12.1153C51.852 12.7051 51.585 13.5803 51.5857 14.7412ZM46.9418 27.2907V7.52665H51.2541V8.24607L51.1988 9.15809H51.2541C52.2298 7.84983 53.6671 7.19571 55.5663 7.19571C57.5012 7.19571 59.0533 7.8821 60.2228 9.25484C61.3922 10.6276 61.9773 12.429 61.9779 14.659C61.9779 16.8888 61.3513 18.6848 60.0983 20.0472C58.8453 21.4095 57.2606 22.0913 55.3441 22.0927C53.9804 22.0927 52.7734 21.6413 51.723 20.7383H51.6675C51.708 21.1425 51.7265 21.5485 51.723 21.9547V27.2897L46.9418 27.2907ZM26.7358 21.7621V1.99811H43.4326V21.7621H38.5942V6.11741H31.5729V21.7628L26.7358 21.7621Z" fill="#313131"/>
</svg>
