<svg width="55" height="55" viewBox="0 0 55 55" fill="none" xmlns="http://www.w3.org/2000/svg">
<rect width="54.5" height="54.5" rx="27.25" fill="#FAFAFA"/>
<path d="M36.3196 29.7423C35.2166 28.6534 33.8396 28.6534 32.7436 29.7423C31.9076 30.5713 31.0716 31.4003 30.2496 32.2434C30.0248 32.4752 29.8351 32.5244 29.5611 32.3699C29.0202 32.0748 28.4441 31.8359 27.9242 31.5127C25.5004 29.9882 23.4701 28.0281 21.6716 25.8222C20.7794 24.7262 19.9855 23.553 19.4305 22.2322C19.3181 21.9652 19.3391 21.7896 19.5569 21.5718C20.393 20.7639 21.2079 19.9349 22.0299 19.1059C23.175 17.9537 23.175 16.6048 22.0229 15.4456C21.3695 14.7852 20.7161 14.1389 20.0628 13.4785C19.3883 12.8041 18.7209 12.1226 18.0394 11.4552C16.9365 10.3803 15.5595 10.3803 14.4635 11.4622C13.6205 12.2912 12.8125 13.1413 11.9554 13.9562C11.1616 14.708 10.7611 15.6283 10.6768 16.7032C10.5433 18.4525 10.9719 20.1035 11.5761 21.7123C12.8125 25.0423 14.6953 28 16.9786 30.7119C20.0628 34.3791 23.7441 37.2806 28.0507 39.3742C29.9897 40.3156 31.9989 41.0392 34.1838 41.1586C35.6873 41.2429 36.994 40.8636 38.0408 39.6903C38.7574 38.8894 39.5653 38.1588 40.324 37.393C41.4481 36.2549 41.4551 34.8779 40.3381 33.7539C39.0033 32.412 37.6614 31.0772 36.3196 29.7423Z" fill="#2F9EEE"/>
</svg>
