<svg width="300" height="56" viewBox="0 0 300 56" fill="none" xmlns="http://www.w3.org/2000/svg">
<path d="M0 55.125V0.875002H59.3861V55.125H42.0772V13.7812H17.3089V55.125H0Z" fill="white" fill-opacity="0.3"/>
<path d="M110.088 38.3542H89.4481V55.125H72.1392V0.875002H110.088C128.628 0.875002 133.915 8.38542 133.915 19.0312V19.9063C133.915 30.4792 128.484 38.3542 110.088 38.3542ZM89.4481 13.9271V25.375H108.64C114.072 25.375 115.955 23.1146 115.955 19.6875V19.4688C115.955 16.2604 114.072 13.9271 108.64 13.9271H89.4481Z" fill="white" fill-opacity="0.3"/>
<path d="M174.996 0H178.255C205.196 0 211.786 15.2396 211.786 26.7604V28.9479C211.786 40.3229 205.268 56 178.255 56H174.996C148.055 56 141.464 40.3229 141.464 28.9479V26.7604C141.464 15.2396 148.055 0 174.996 0ZM193.753 28.2917V27.3438C193.753 21.4375 191.001 13.5625 176.661 13.5625C162.249 13.5625 159.497 21.4375 159.497 27.3438V28.2917C159.497 34.1979 162.539 42.2917 176.661 42.2917C191.001 42.2917 193.753 34.1979 193.753 28.2917Z" fill="white" fill-opacity="0.3"/>
<path d="M222.146 55.125V0.875002H245.611L261.471 34.6354L277.694 0.875002H300V55.125H283.053V20.4896L266.903 55.125H254.881L238.803 20.4896V55.125H222.146Z" fill="white" fill-opacity="0.3"/>
</svg>
