<svg width="20" height="20" viewBox="0 0 20 20" fill="none" xmlns="http://www.w3.org/2000/svg">
<path d="M19.0035 19.027C19.5525 18.4822 19.5525 17.5944 19.0034 17.0497L16.0104 14.0805C15.3076 13.3833 15.248 12.2852 15.6516 11.3812C16.0989 10.3797 16.3476 9.27229 16.3476 8.10833C16.3476 3.6375 12.6809 0 8.17339 0C3.66669 0 0 3.6375 0 8.10833C0 12.58 3.66669 16.2167 8.17339 16.2167C9.29436 16.2167 10.3629 15.9918 11.3363 15.5851C12.2192 15.2161 13.2728 15.2881 13.9522 15.962L17.0418 19.027C17.5848 19.5656 18.4605 19.5656 19.0035 19.027ZM2.39741 8.10833C2.39741 4.94833 4.98888 2.3775 8.17424 2.3775C11.3596 2.3775 13.9511 4.94833 13.9511 8.10833C13.9511 11.2683 11.3596 13.8392 8.17424 13.8392C4.98803 13.8392 2.39741 11.2683 2.39741 8.10833Z" fill="#2F9EEE"/>
</svg>
