<svg width="291" height="546" viewBox="0 0 291 546" fill="none" xmlns="http://www.w3.org/2000/svg">
<path d="M145.47 546C108.504 546 79.3668 539.042 58.0573 525.125C37.1828 511.209 22.1792 491.857 13.0466 467.068C4.34886 441.845 0 412.925 0 380.308V361.391H108.939C108.939 361.826 108.939 364.217 108.939 368.566C108.939 372.915 108.939 376.829 108.939 380.308C108.939 397.704 110.026 411.838 112.201 422.71C114.375 433.582 118.289 441.627 123.943 446.846C129.596 451.63 137.424 454.022 147.427 454.022C157.429 454.022 164.822 451.412 169.606 446.194C174.824 440.975 178.303 433.147 180.043 422.71C181.783 412.272 182.652 399.226 182.652 383.57C182.652 357.477 178.956 337.689 171.563 324.208C164.605 310.292 149.818 303.116 127.204 302.681C126.769 302.681 124.378 302.681 120.029 302.681C115.68 302.681 111.331 302.681 106.982 302.681V227.663C110.026 227.663 113.07 227.663 116.115 227.663C119.159 227.663 121.986 227.663 124.595 227.663C147.644 227.663 163.082 221.357 170.91 208.746C178.738 196.134 182.652 176.564 182.652 150.036C182.652 129.596 179.826 113.94 174.172 103.068C168.953 92.1959 158.951 86.7599 144.165 86.7599C129.814 86.7599 120.246 92.8483 115.462 105.025C111.114 117.202 108.939 132.858 108.939 151.993C108.939 156.342 108.939 160.908 108.939 165.692C108.939 170.041 108.939 174.607 108.939 179.391H0V147.427C0 115.68 5.65352 88.9343 16.9606 67.19C28.7025 45.0107 45.2282 28.2676 66.5376 16.9606C88.282 5.65352 114.158 0 144.165 0C174.607 0 200.7 5.43608 222.444 16.3082C244.189 27.1804 260.932 43.2712 272.674 64.5806C284.416 85.4552 290.287 111.548 290.287 142.86C290.287 173.737 283.981 199.613 271.369 220.487C258.757 241.362 243.536 254.191 225.706 258.975C237.883 263.324 248.755 270.282 258.323 279.849C268.325 289.417 276.153 302.464 281.806 318.989C287.46 335.08 290.287 355.737 290.287 380.961C290.287 413.142 285.503 441.627 275.935 466.416C266.803 491.204 251.582 510.774 230.272 525.125C208.963 539.042 180.695 546 145.47 546Z" fill="white"/>
</svg>
