<svg width="63" height="63" viewBox="0 0 63 63" fill="none" xmlns="http://www.w3.org/2000/svg">
<path d="M31.2428 0H31.1008C13.9243 0 0 13.9284 0 31.1099V31.2519C0 48.4335 13.9243 62.3619 31.1008 62.3619H31.2428C48.4192 62.3619 62.3435 48.4335 62.3435 31.2519V31.1099C62.3435 13.9284 48.4192 0 31.2428 0Z" fill="#00B0F2"/>
<path d="M11.8071 30.1177C11.8945 30.074 11.9819 30.0325 12.0671 29.9932C13.548 29.3072 15.0485 28.6648 16.5469 28.0225C16.6277 28.0225 16.7631 27.9285 16.8395 27.8979C16.9553 27.8477 17.0711 27.7996 17.1868 27.7494L17.853 27.4632C18.2986 27.2731 18.742 27.083 19.1875 26.8929C20.0765 26.5128 20.9655 26.1326 21.8544 25.7502C23.6324 24.9899 25.4125 24.2274 27.1905 23.4671C28.9684 22.7068 30.7485 21.9443 32.5264 21.1839C34.3044 20.4236 36.0845 19.6611 37.8624 18.9008C39.6404 18.1405 41.4205 17.3779 43.1984 16.6176C43.5938 16.4472 44.0219 16.1938 44.4456 16.1195C44.8016 16.0561 45.1489 15.9338 45.5071 15.866C46.1864 15.7371 46.9356 15.6847 47.5865 15.9665C47.8114 16.0649 48.0189 16.2025 48.1915 16.3751C49.0171 17.1922 48.9013 18.5337 48.7266 19.6829C47.51 27.6926 46.2934 35.7044 45.0746 43.714C44.9086 44.813 44.6815 46.019 43.8143 46.7138C43.0805 47.3015 42.0364 47.3671 41.13 47.118C40.2235 46.8667 39.4241 46.3402 38.64 45.8224C35.3877 43.6681 32.1333 41.5139 28.881 39.3596C28.1078 38.8484 27.2473 38.1798 27.256 37.2512C27.2604 36.6919 27.5945 36.1938 27.9353 35.7503C30.7616 32.0623 34.8395 29.5278 37.8733 26.0102C38.3014 25.5143 38.6378 24.6185 38.0503 24.3323C37.7008 24.1619 37.2989 24.3935 36.98 24.6141C32.9698 27.3998 28.9618 30.1877 24.9517 32.9733C23.6433 33.8822 22.2717 34.8173 20.6947 35.0402C19.2837 35.2412 17.864 34.8479 16.4988 34.4459C15.3543 34.1094 14.2119 33.7642 13.074 33.4081C12.4689 33.2202 11.8443 33.017 11.3768 32.591C10.9094 32.1649 10.6408 31.4483 10.9226 30.8803C11.0995 30.5241 11.4424 30.2991 11.8028 30.1156L11.8071 30.1177Z" fill="#FEFFFC"/>
</svg>
