<svg width="63" height="63" viewBox="0 0 63 63" fill="none" xmlns="http://www.w3.org/2000/svg">
<circle cx="31.493" cy="31.18" r="31.18" fill="#5282B8"/>
<g clip-path="url(#clip0_76_1064)">
<path d="M33.5402 47.4048C34.7074 47.4048 35.1847 46.6267 35.1712 45.6511C35.1118 41.9768 36.5397 39.9988 39.1177 42.5768C41.9697 45.4288 42.56 47.4048 46.0234 47.4048H52.1567C53.7054 47.4048 54.3149 46.9065 54.3149 46.1245C54.3149 44.4704 51.5913 41.5513 49.2837 39.4085C46.0522 36.4089 45.9007 36.338 48.6837 32.727C52.1357 28.2439 56.6513 22.4997 52.657 22.4997H45.0267C43.5471 22.4997 43.4397 23.3334 42.9127 24.5754C41.0056 29.0738 37.3812 34.9005 36.005 34.0093C34.5656 33.0797 35.2249 29.3978 35.3342 23.9257C35.3629 22.4805 35.3552 21.4896 33.1472 20.9759C31.9417 20.698 30.7687 20.583 29.68 20.583C25.3234 20.583 22.3181 22.4096 24.0258 22.7278C27.0369 23.2893 26.7475 29.8041 26.046 32.6178C24.8232 37.5168 20.227 28.7384 18.3122 24.3665C17.8503 23.3162 17.7085 22.4997 16.0602 22.4997H9.8214C8.8784 22.4997 8.31299 22.8063 8.31299 23.4887C8.31299 24.6425 13.9863 36.3687 19.4028 42.2145C24.6852 47.9166 29.9062 47.4048 33.5402 47.4048Z" fill="white"/>
</g>
<defs>
<clipPath id="clip0_76_1064">
<rect width="46" height="46" fill="white" transform="translate(8.31299 11)"/>
</clipPath>
</defs>
</svg>
