<svg width="63" height="63" viewBox="0 0 63 63" fill="none" xmlns="http://www.w3.org/2000/svg">
<path d="M31.2428 0H31.1008C13.9243 0 0 13.9284 0 31.1099V31.2519C0 48.4335 13.9243 62.3619 31.1008 62.3619H31.2428C48.4192 62.3619 62.3435 48.4335 62.3435 31.2519V31.1099C62.3435 13.9284 48.4192 0 31.2428 0Z" fill="#00E510"/>
<path d="M37.247 40.3013C29.2682 40.3013 22.7767 33.8058 22.7745 25.8246C22.7767 23.8014 24.4236 22.1562 26.4418 22.1562C26.6493 22.1562 26.8546 22.1737 27.0512 22.2087C27.4837 22.2808 27.8943 22.4272 28.2722 22.6478C28.3268 22.6806 28.3639 22.733 28.3726 22.7942L29.2157 28.1099C29.2267 28.1733 29.207 28.2345 29.1655 28.2804C28.7003 28.796 28.1062 29.1674 27.4443 29.3531L27.1255 29.4427L27.2456 29.7508C28.3333 32.5211 30.5481 34.7344 33.3198 35.8268L33.6278 35.9491L33.7174 35.6302C33.903 34.9682 34.2743 34.3739 34.7898 33.9085C34.8269 33.8735 34.8772 33.8561 34.9274 33.8561C34.9383 33.8561 34.9493 33.8561 34.9624 33.8583L40.2765 34.7016C40.3398 34.7125 40.3923 34.7475 40.425 34.8021C40.6435 35.1801 40.7898 35.593 40.8641 36.0256C40.899 36.2179 40.9143 36.4211 40.9143 36.633C40.9143 38.654 39.2696 40.2992 37.247 40.3013Z" fill="#FDFDFD"/>
<path d="M51.3957 29.43C50.9654 24.5665 48.7375 20.0548 45.1227 16.7273C41.486 13.3801 36.7681 11.5361 31.834 11.5361C21.0047 11.5361 12.1937 20.3498 12.1937 31.1822C12.1937 34.8178 13.1962 38.3594 15.0943 41.4444L10.8613 50.8174L24.4143 49.3732C26.771 50.3389 29.2654 50.8283 31.8318 50.8283C32.5067 50.8283 33.1991 50.7933 33.8937 50.7212C34.5053 50.6557 35.1234 50.5596 35.7306 50.4372C44.7994 48.6041 51.4197 40.553 51.4721 31.2871V31.1822C51.4721 30.5923 51.4459 30.0024 51.3935 29.43H51.3957ZM24.9363 45.2591L17.438 46.0588L19.6768 41.097L19.229 40.4962C19.1962 40.4525 19.1635 40.4088 19.1263 40.3585C17.1824 37.6734 16.1558 34.501 16.1558 31.1844C16.1558 22.5368 23.1889 15.5016 31.834 15.5016C39.933 15.5016 46.7979 21.8224 47.4597 29.891C47.4947 30.3236 47.5143 30.7584 47.5143 31.1866C47.5143 31.3089 47.5122 31.4291 47.51 31.558C47.344 38.792 42.2919 44.9358 35.2239 46.5001C34.6844 46.6203 34.1318 46.7121 33.5813 46.771C33.0091 46.8366 32.4215 46.8694 31.8384 46.8694C29.7612 46.8694 27.743 46.4674 25.8362 45.6721C25.6243 45.5869 25.4168 45.4951 25.2224 45.4011L24.9385 45.2635L24.9363 45.2591Z" fill="#FDFDFD"/>
</svg>
